<svg xmlns="http://www.w3.org/2000/svg" width="155.4" height="158.1" viewBox="0 0 155.39999 158.10001" id="svg4304" display="block"><defs id="defs4306"><clipPath id="c0_1"><path d="M.1 1356.6V0h1161v1356.6z" id="path4309"/></clipPath><style id="style4311"><![CDATA[

.g1_1{
fill: #FFFFFF;
}
.g2_1{
fill: #FFD60F;
}
.g3_1{
fill: #595959;
}
.g4_1{
fill: #87BE2E;
}
.g5_1{
fill: #2BE6F0;
}
.g6_1{
fill: #84BC28;
}
.g7_1{
fill: #545454;
}
.g8_1{
fill: #2CEDF7;
}


]]></style></defs><path d="M113.4 66.5H83.8l9.5-65.2-54.7 91.5h29.7l-9.5 65.3 54.6-91.6z" class="g3_1" id="path4313" fill="#595959"/><path d="M60.8 3.5L45.5 0l3 9.6C19.8 20.3 0 48 0 79.3c0 26.5 14.3 51.2 37.2 64.4.9.5 1.8.8 2.8.8 2 0 3.8-1 4.9-2.8 1.5-2.7.6-6.2-2.1-7.7-19.4-11.3-31.5-32.2-31.5-54.7 0-26.3 16.5-49.7 40.5-58.9l3 9.5L76 6.9 60.8 3.5z" class="g4_1" id="path4315" fill="#87be2e"/><path d="M94.6 154.6l15.3 3.5-3-9.6c28.6-10.7 48.5-38.4 48.5-69.8 0-26.4-14.3-51.1-37.2-64.4-.9-.5-1.9-.7-2.8-.7-2 0-3.9 1-4.9 2.8-1.6 2.7-.6 6.1 2 7.7 19.5 11.3 31.6 32.2 31.6 54.6 0 26.4-16.6 49.8-40.6 59l-2.9-9.5-21.3 22.9 15.3 3.5z" class="g4_1" id="path4317" fill="#87be2e"/></svg>