<svg xmlns="http://www.w3.org/2000/svg" width="162.408" height="172.853" viewBox="0 0 162.40776 172.85259" id="svg4863" display="block"><defs id="defs4865"><clipPath id="c0_1"><path d="M.1 1356.6V0h1161v1356.6z" id="path4868"/></clipPath><style id="style4870"><![CDATA[

.g1_1{
fill: #FFFFFF;
}
.g2_1{
fill: #FFD60F;
}
.g3_1{
fill: #595959;
}
.g4_1{
fill: #87BE2E;
}
.g5_1{
fill: #2BE6F0;
}
.g6_1{
fill: #84BC28;
}
.g7_1{
fill: #545454;
}
.g8_1{
fill: #2CEDF7;
}


]]></style></defs><path d="M132.204 26.953c-14.6-19.4-33.6-27.7-53.7-26.9-20.4.9-38.7 11.9-48.5 26.9-14.7 21.2-14.6 49.2.1 70.4 13.2 17.5 29.5 25.9 48.4 26.7 24.1 0 42.7-10.4 53.6-26.7 14.7-21.2 14.7-49.2.1-70.4z" class="g3_1" id="path9" fill="#595959"/><path d="M37.404 98.353c4-2.7 9.1-4.8 14.9-6.4 3.6 10.5 8.9 19.5 14.9 25.3-12.3-3.3-22.4-9.9-29.8-18.9zm15.3-66c-6.1-1.5-11.3-3.7-15.5-6.5 8-9.7 19-16.5 31.1-19.3-6.2 5.9-11.9 15.3-15.6 25.8zm26 8.2v18.9h-26c.2-7.2 1.3-14.3 3.3-21.1 6.7 1.4 14.3 2.1 22.7 2.2zm-54.4 18.9c.5-10.6 3.9-20.8 9.9-29.5 4.6 3.1 10.3 5.6 16.9 7.3-2.1 7.2-3.3 14.7-3.5 22.2h-23.3zm54.4 29.3v29.9c-7.9-2.1-16.3-13-21.3-27.9 6.2-1.2 13.4-1.9 21.3-2zm-26-24.2h26v19.1c-8.5.2-16.2.9-22.8 2.3-2-7-3-14.1-3.2-21.4zm-5.1 0c.2 7.7 1.3 15.3 3.3 22.5-6.5 1.8-12.1 4.2-16.6 7.2-6.1-8.8-9.5-19-10-29.7h23.3zm10-31c5.6-15.6 14.7-25.7 21.1-27.9v29.8c-7.8-.1-14.9-.7-21.1-1.9zm67.4 64.8c-7.7 9.3-18.3 16-30 18.9 5.9-5.8 11.1-14.8 14.5-25.5 6.1 1.6 11.3 3.8 15.5 6.6zm-41.3-14.7v-19.1h25.1c-.2 7.2-1.2 14.3-3 21.2-6.5-1.2-13.9-1.9-22.1-2.1zm54.4-19.1c-.5 10.7-3.9 20.9-10 29.7-4.7-3.1-10.5-5.6-17.2-7.3 1.8-7.2 2.8-14.7 3-22.4h24.2zm-54.4-29.1v-29.8c6.2 2.3 14.9 12.5 20.4 28-6 1.1-12.9 1.7-20.4 1.8zm25.1 24h-25.1v-18.9c8.1-.1 15.5-.8 21.9-2 1.9 6.7 3 13.8 3.2 20.9zm.2-26.9c-3.7-10.7-9.3-20.1-15.4-26.1 12.4 2.8 23.4 9.6 31.5 19.4-4.3 2.9-9.7 5.1-16.1 6.7zm1.5 4.9c7-1.8 12.9-4.3 17.7-7.5 6 8.7 9.4 18.9 9.9 29.5h-24.2c-.2-7.4-1.3-14.8-3.4-22zm-6.2 53.2c-4.9 14.9-13 25.8-20.6 28v-29.9c7.6.1 14.6.8 20.6 1.9z" class="g5_1" id="path11" fill="#2be6f0"/><path d="M153.704 91.653c-2 3.9-6.4 16.4-8.3 21.2 2.2 0 4.4 2.2 4.2 4.4-.5 4-3.4 8.3-7.5 12.6-7.5 7.9-19 15.8-25.7 20.8-.9-.5-1.5-1-2-1.6h.2s30.1-19.5 32.7-30.5c.5-2-1.4-4.9-3.4-4.3-6.1 1.8-11.9 10.6-20.7 14.9-5.7 2.7-18.1 4.6-26.8 9.5-3.8 2.2-6.3 4.7-8.2 8.6-4.4 8.9-3.8 18.5-5.2 25.6h28.7c1.9-3.9 3.9-7.6 5.6-9.2 5.9-5.5 23.1-9.6 28.1-16 9.6-12.3 17.2-50.4 17-60.4-.2-8-4.2-4.6-8.7 4.4zm-136.7 56c-9.7-12.3-17.2-50.4-17-60.4.2-8 4.2-4.6 8.7 4.4 2 3.9 6.4 16.4 8.3 21.2-2.2 0-4.4 2.2-4.2 4.4.4 4 3.4 8.3 7.4 12.6 7.6 7.9 19.1 15.8 25.8 20.8.9-.5 1.5-1 2-1.6h-.3s-30.1-19.5-32.7-30.5c-.5-2 1.5-4.9 3.5-4.3 6.1 1.8 11.9 10.6 20.7 14.9 5.6 2.7 18.1 4.6 26.8 9.5 3.7 2.2 6.3 4.7 8.2 8.6 4.4 8.9 3.8 18.5 5.2 25.6h-28.7c-1.9-3.9-3.9-7.6-5.6-9.2-5.9-5.5-23.1-9.6-28.1-16z" class="g3_1" id="path13" fill="#595959"/></svg>