<svg xmlns="http://www.w3.org/2000/svg" width="153.307" height="170.233" viewBox="0 0 153.30676 170.23305" id="svg2" display="block"><defs id="defs4"><clipPath id="c0_1"><path d="M.1 1356.6V0h1161v1356.6z" id="path7"/></clipPath><style id="style9"><![CDATA[

.g1_1{
fill: #FFFFFF;
}
.g2_1{
fill: #FFD60F;
}
.g3_1{
fill: #595959;
}
.g4_1{
fill: #87BE2E;
}
.g5_1{
fill: #2BE6F0;
}
.g6_1{
fill: #84BC28;
}
.g7_1{
fill: #545454;
}
.g8_1{
fill: #2CEDF7;
}


]]></style></defs><path d="M108.3 85.1v27.8c31.7-5.5 41.1-35 37.9-65.6l-37.9 37.8zm-7.7-54.5V0c-3 2.5-7.5 12.1-11.2 19.4l11.2 11.2zm0 54.5L62.7 47.3c-3.3 30.8 6.3 60.1 37.9 65.6V85.1zm7.7-10.5l26.1-26c-1.4-8.7-4.5-17.2-8.1-24.9l-18 18v32.9zm-7.7-32.9l-18-18c-3.7 7.7-6.7 16.2-8.1 24.9l26.1 26V41.7zM108.3 0c3 2.5 7.5 12.1 11.2 19.4l-11.2 11.2V0z" class="g4_1" id="path11" fill="#87be2e"/><path d="M151.8 125.8c-6.2-1-31.1 19.1-49.9 18.8-8.3-.2-22.1-1-31.7-7.7 9.1 1.7 27.7-2.4 28.1-9 .2-2.6-11.3-2.1-21.8-5.6-10.1-3.5-18.9-10.9-26.1-13.2-11.3-3.6-33.1 1.5-50.4 5.6v28.1c.3.3.6.7 1 1 7.6.2 15-1.7 21.8 1.1 23.1 9.3 52.1 31.1 71.9 23.9 26.7-9.8 66.9-41.3 57.1-43z" class="g3_1" id="path13" fill="#595959"/></svg>