<svg xmlns="http://www.w3.org/2000/svg" width="111.8" height="197.107" viewBox="0 0 111.8 197.10742" id="svg2" display="block"><defs id="defs4"><clipPath id="c0_1"><path d="M.1 1356.6V0h1161v1356.6z" id="path7"/></clipPath><style id="style9"><![CDATA[

.g1_1{
fill: #FFFFFF;
}
.g2_1{
fill: #FFD60F;
}
.g3_1{
fill: #595959;
}
.g4_1{
fill: #87BE2E;
}
.g5_1{
fill: #2BE6F0;
}
.g6_1{
fill: #84BC28;
}
.g7_1{
fill: #545454;
}
.g8_1{
fill: #2CEDF7;
}


]]></style></defs><path d="M72.2 70.207c-.6 1.6-1.4 2.9-2.3 4.3-1.3 2.2-2.7 4.4-3 7.3-.1 1.2-1.2 2-2.4 1.9-1.2-.1-2.1-1.2-2-2.4.4-3.9 2.2-6.8 3.7-9.1.7-1.2 1.4-2.4 1.8-3.4.3-.8.1-1.4-.5-1.8-.8-.6-2.2-.7-3.7.4-7.9 6-12 3.1-15 1-1.4-1-2.3-1.6-3.4-1.5-.5 0-1.2.2-1.5.9-.4 1-.2 2.9 1.7 5.4 2.4 3.2 9.2 13.8 8.6 20.2-.2 1.1-1.1 1.9-2.2 1.9h-.3c-1.2-.1-2.1-1.2-1.9-2.4.4-3.9-4.3-12.6-7.7-17.1-2.7-3.5-3.5-7-2.2-9.8.9-2 2.8-3.3 5.2-3.5 2.7-.2 4.6 1.1 6.3 2.3 2.6 1.8 4.4 3.1 9.7-.9 2.9-2.1 6.5-2.3 9-.5 2.2 1.6 3 4.3 2.1 6.8zm2.3-66.9c-5.7-2.5-12.1-3.4-18.3-3.3-6.2-.1-12.7.8-18.4 3.3-6.4 2.7-25.5 11.6-25.4 38.3 0 20.7 19.5 41.4 21.7 61.2l22.1.2 22.1-.2c2.2-19.8 21.7-40.5 21.7-61.2 0-26.7-19.1-35.6-25.5-38.3z" class="g2_1" id="path11" fill="#ffd60f"/><path d="M70.1 109.907H42.2c-3.5 0-6.4 2.9-6.4 6.4 0 .7 4 15.7 8.6 16.5.3 3.3 3.1 6 6.5 6h3v58.3h4v-58.3h3.6c3.4 0 6.2-2.7 6.4-6 4.6-.8 8.6-15.8 8.6-16.5 0-3.5-2.8-6.4-6.4-6.4z" class="g3_1" id="path13" fill="#595959"/><path d="M0 143.207c6.5 7.5 8.1 18.3 14.8 25.7 5.5 6.1 16.5 14 25.7 7.1-6.8-9.8-15.6-20.6-25.8-26.8 11.1 5 21.1 12.9 29.1 21.8 12-15.1-11.6-34.9-43.8-27.8zm111.8 0c-6.4 7.5-8 18.3-14.7 25.7-5.6 6.1-16.6 14-25.7 7.1 6.7-9.8 15.5-20.6 25.8-26.8-11.1 5-21.1 12.9-29.1 21.8-12-15.1 11.6-34.9 43.7-27.8z" class="g4_1" id="path15" fill="#87be2e"/></svg>