<svg xmlns="http://www.w3.org/2000/svg" viewBox="-249 298.9 111.8 197.1" enable-background="new -249 298.9 111.8 197.1"><path fill="#FFD60F" d="M-174.5 302.2c-5.7-2.5-12-3.4-18.3-3.3-6.2-.2-12.7.7-18.4 3.2-6.4 2.7-25.5 11.6-25.4 38.3 0 20.7 19.5 41.4 21.7 61.2l22.2.2 22-.3c2.3-19.8 21.8-40.5 21.8-61.2 0-26.7-19-35.6-25.5-38.3z"/><path fill="#595959" d="M-179 408.8h-27.8c-3.5 0-6.4 3-6.4 6.4 0 .7 4 15.7 8.6 16.5.3 3.3 3 6 6.5 6h3V496h4v-58.3h3.5c3.4 0 6.2-2.7 6.4-6 4.5-.8 8.5-15.8 8.5-16.5 0-3.5-2.8-6.4-6.4-6.4z"/><path fill="#87BE2E" d="M-249 442c6.5 7.6 8 18.4 14.8 25.8 5.5 6 16.5 14 25.7 7-6.8-9.7-15.6-20.5-25.8-26.7 11 5 21 13 29 22 12-15.2-11.5-35-43.7-28zm111.8 0c-6.4 7.6-8 18.4-14.7 25.8-5.5 6-16.5 14-25.6 7 6.7-9.7 15.5-20.5 25.8-26.7-11 5-21 13-29 22-12-15.2 11.5-35 43.6-28z"/><defs><filter id="a" filterUnits="userSpaceOnUse" x="-218.5" y="314.1" width="50.7" height="107.9"><feFlood result="back" flood-color="#fff" flood-opacity="1"/><feBlend in="SourceGraphic" in2="back"/></filter></defs><text transform="translate(-215.46 394.375)" fill="#FF7110" font-family="'ArialMT'" font-size="91.2" mask="url(#b)">$</text></svg>