<svg xmlns="http://www.w3.org/2000/svg" width="142.064" height="179.737" viewBox="0 0 142.06433 179.73682" id="svg2" display="block"><defs id="defs4"><clipPath id="c0_1"><path d="M.1 1356.6V0h1161v1356.6z" id="path7"/></clipPath><style id="style9"><![CDATA[

.g1_1{
fill: #FFFFFF;
}
.g2_1{
fill: #FFD60F;
}
.g3_1{
fill: #595959;
}
.g4_1{
fill: #87BE2E;
}
.g5_1{
fill: #2BE6F0;
}
.g6_1{
fill: #84BC28;
}
.g7_1{
fill: #545454;
}
.g8_1{
fill: #2CEDF7;
}


]]></style></defs><path d="M75.763 80.737c.7 9.6-3.3 24.5-4.7 29-5.1-22.5-15.1-45.1-38-45.1s-38.8 23.5-31.1 46.7c9.2 27.5 44.2 51.2 68.8 68.4 33.5-23.9 60.2-42 69.1-68 11.8-34.4-25.9-67.1-64.1-31z" class="g3_1" id="path11" fill="#595959"/><path d="M75.963 32.037c-4-16.5-29.5-36.1-70-31.3 12.3 12.1 16.8 68.3 51.3 60.4 2.3 2.7 4.6 6.6 6.1 9.7 4.5 8.4 6.6 17.8 7.9 27.1.5-12.5-.3-22.9-5.4-35.7-7.1-17.4-25-40.2-37.9-50 29 16.8 43.1 39 45.5 43.6 7.8-10.6 17.8-20.3 29.4-27-10.5 7.9-19 20.6-25.3 32 10.1 3.8 22.2-1.1 27.3-10.6 5.9-11.1 5.4-21.7 13.3-29.5-14.7-1.7-31.7 1.1-42.2 11.3z" class="g4_1" id="path13" fill="#87be2e"/></svg>