<svg xmlns="http://www.w3.org/2000/svg" width="118.883" height="153.4" viewBox="0 0 118.88297 153.39999" id="svg2" display="block"><defs id="defs4"><clipPath id="c0_1"><path d="M.1 1356.6V0h1161v1356.6z" id="path7"/></clipPath><style id="style9"><![CDATA[

.g1_1{
fill: #FFFFFF;
}
.g2_1{
fill: #FFD60F;
}
.g3_1{
fill: #595959;
}
.g4_1{
fill: #87BE2E;
}
.g5_1{
fill: #2BE6F0;
}
.g6_1{
fill: #84BC28;
}
.g7_1{
fill: #545454;
}
.g8_1{
fill: #2CEDF7;
}


]]></style></defs><path d="M97.3 121.6c-6.9-.2-11.5-6.7-10.2-17.5 1.3-10.6 8.7-21.7 10.2-25.4 1.4 3.7 8.8 14.8 10.1 25.4 1.3 10.8-3.3 17.3-10.1 17.5zm20.6-29.2C112.2 55.6 79.4 16.8 73.1 4c-3.8 7.8-17.4 25.1-28.8 45.7h27.4l-42.1 72c5.9 19.7 22.3 31.2 43.5 31.7 30.1-.7 50.6-23.6 44.8-61z" class="g5_1" id="path11" fill="#2be6f0"/><path d="M62.5 54.6H37.7L45.6 0 0 76.5h24.7l-7.9 54.6 45.7-76.5z" class="g3_1" id="path13" fill="#595959"/></svg>