<svg xmlns="http://www.w3.org/2000/svg" width="253.402" height="166" viewBox="0 0 253.4019 166" id="svg2" display="block"><defs id="defs4"><clipPath id="c0_1"><path d="M.1 1356.6V0h1161v1356.6z" id="path7"/></clipPath><style id="style9"><![CDATA[

.g1_1{
fill: #FFFFFF;
}
.g2_1{
fill: #FFD60F;
}
.g3_1{
fill: #595959;
}
.g4_1{
fill: #87BE2E;
}
.g5_1{
fill: #2BE6F0;
}
.g6_1{
fill: #84BC28;
}
.g7_1{
fill: #545454;
}
.g8_1{
fill: #2CEDF7;
}


]]></style></defs><path d="M198 145.8c0 8.7 7.1 15.7 15.7 15.7 8.7 0 15.8-7 15.8-15.7s-7.1-15.7-15.8-15.7c-8.6 0-15.7 7-15.7 15.7zm-4.5 0c0-11.1 9.1-20.2 20.2-20.2 11.2 0 20.2 9.1 20.2 20.2 0 11.2-9 20.2-20.2 20.2-11.1 0-20.2-9-20.2-20.2zm-140.5 0c0 8.7 7.1 15.7 15.7 15.7 8.7 0 15.8-7 15.8-15.7s-7.1-15.7-15.8-15.7c-8.6 0-15.7 7-15.7 15.7zm-4.5 0c0-11.1 9.1-20.2 20.2-20.2 11.2 0 20.2 9.1 20.2 20.2 0 11.2-9 20.2-20.2 20.2-11.1 0-20.2-9-20.2-20.2z" class="g3_1" id="path11" fill="#595959"/><path d="M245.7 120.6c-.5 0-1 0-1.4-.1-2.9-.7-4.9-3.2-4.9-6.1V108c0-.3.1-.5.1-.8.8.4 1.6.9 2.4 1.4 1.5 1 2.8 2.1 3.7 3.2 1.9 2.4 3.4 5.4 4.4 8.8h-4.3zm-137.9-18.8v-34c11.4-.2 26.4.6 31.1 1.9 16.7 4.4 54.5 32.5 54.5 32.5s-48.9-.2-85.6-.4zm-6.4 0c-9.3-.1-17.6-.1-23.5-.2-2.6 0-9.9.1-3.4-9.3 6-8.8 14.7-20.6 20.1-23.2 1.1-.5 3.6-.9 6.8-1.1v33.8zM59.5 83.9l-.2.1c-5.4 4.7-10.5 9-13.9 10.3-1.4.6-2.3.8-4.9.9 5.8-7.5 16.3-19.4 24.2-24.8h10c-2.9 2.6-9.1 8.3-15.2 13.5zm189.6 30c-.7-1.1-1.4-2.2-2.2-3.2-1-1.3-5.3-4.3-8.7-5.6-4.6-1.8-9.8-3.5-15-4.9-9.4-4.9-58.9-30.6-69.7-33.4-12.1-3.1-30.2-4.5-47.7-4.5-14.4.1-28.3 1-37.9 4.5-8 2.9-22.8 19.2-30.1 28.9-.3.4-.5.7-.7 1-2.1 2.7-3 6-3.2 10-.3 5.9-.3 37 1.1 37.7 2.1 1 4.8 1.9 7.9 2.9v-.6c0-13.8 11.3-25.1 25.1-25.1s25.1 11.3 25.1 25.1c0 5-.6 6.4-1.1 8.1.8 0 27.4.1 47.3.3 17 .1 35.3.3 51.6.4-.7-1.9-1.6-3.6-1.6-8.8 0-13.8 11.3-25.1 25.1-25.1 13.9 0 25.1 11.3 25.1 25.1 0 1.7-.4 5-.8 7.3 5.4-1.5 12.4-5.5 13.5-10.8 2.2-10.5 1.5-21.6-3.1-29.3z" class="g3_1" id="path13" fill="#595959"/><path d="M33.8 123C15.1 123 0 107.9 0 89.2V59c0-18.7 15.1-33.8 33.8-33.8H128V30H33.8c-16 0-29.1 13-29.1 29v30.2c0 16 13.1 29.1 29.1 29.1v4.7z" class="g3_1" id="path15" fill="#595959"/><path d="M159.7 41.3V13.9c0-.6.5-1.1 1.1-1.1.6 0 1.1.5 1.1 1.1v27.4c0 .6-.5 1-1.1 1-.6 0-1.1-.4-1.1-1zm-5.9 0V13.9c0-.6.5-1.1 1.1-1.1.6 0 1.1.5 1.1 1.1v27.4c0 .6-.5 1-1.1 1-.6 0-1.1-.4-1.1-1zm-6 0V13.9c0-.6.5-1.1 1.1-1.1.6 0 1.1.5 1.1 1.1v27.4c0 .6-.5 1-1.1 1-.6 0-1.1-.4-1.1-1zm29 13.8V42.9h24.3c1.5 0 2.7-1.2 2.7-2.7 0-1.4-1.2-2.6-2.7-2.6h-24.3V17.5h24.3c1.5 0 2.7-1.1 2.7-2.6 0-1.4-1.2-2.6-2.7-2.6h-24.3V0h-10.1v3.6h-15.8c-7.9 0-14.6 5-17.3 11.9h-6.5v24.1h6.5c2.7 7 9.4 11.9 17.3 11.9h15.8v3.6h10.1z" class="g4_1" id="path17" fill="#87be2e"/></svg>