<svg xmlns="http://www.w3.org/2000/svg" width="129.5" height="194.516" viewBox="0 0 129.5 194.51575" id="svg2" display="block"><defs id="defs4"><style id="style9"><![CDATA[

.g1_1{
fill: #FFFFFF;
}
.g2_1{
fill: #FFD60F;
}
.g3_1{
fill: #595959;
}
.g4_1{
fill: #87BE2E;
}
.g5_1{
fill: #2BE6F0;
}
.g6_1{
fill: #84BC28;
}
.g7_1{
fill: #545454;
}
.g8_1{
fill: #2CEDF7;
}


]]></style></defs><path d="M36.1 58.3C28.1 50 17 44.4 5 41.5c3.9 9.2 1.9 19.3 6.4 28.3 3.5 7.3 11.7 16.7 22.3 14.9-3.5-11.2-8.9-22.4-16.6-32 8.8 9 17.3 17.4 22.1 28.3 11.7-5.4 3.2-16.2-3.1-22.7-11-11.4 7.1 7.3 0 0z" class="g4_1" id="path11" fill="#87be2e"/><path d="M66.9 26.7C63 15.8 54.5 6.6 43.9 0c-.7 10.3-7.4 19.4-7.8 29.8-.3 8.6 2.1 22.6 13.9 24 2.2-12.2 3.5-26.6.5-38.7 4.5 11.8 6.2 25 5.6 37.4 14.2-1.7 14.1-16.7 10.8-25.8-5.4-15 3.5 9.6 0 0z" class="g4_1" id="path13" fill="#87be2e"/><path d="M111.6 24.4c-4.2 10.2-1.8 21.5-6.7 31.6-3.8 8-12.7 18.3-24.3 16.4 3.6-12.4 9.5-24.9 17.8-35.5-9.6 9.9-18.7 20.7-23.8 32.8-13.1-5.8-2.4-23.5 4.7-30.6 10.7-10.7 19-11.4 32.3-14.7z" class="g4_1" id="path15" fill="#87be2e"/><path d="M129.5 72.7c-6.3 5.1-9.4 12.4-15.6 17.6-5.6 4.6-16.5 10.3-24 5.7 7.4-7.2 16.3-13.8 26-18.5-10.3 4-20.1 7.3-28.4 13.9-3.9-7.1 5.3-14.7 12-17.5 13-5.2 19.9-2.5 30-1.2z" class="g4_1" id="path17" fill="#87be2e"/><path d="M14.3 111.1C7.2 106 2.1 99.1 0 91.4c8.2 2.7 17.2 2.2 25.5 4.9 6.3 2.1 17.1 7.7 14.4 14.8-10.4-2.6-20.9-6.5-29.8-11.8 8.3 6 17.1 11.9 27.2 15.4-6 7-17 .6-23-3.6-10.3-7.3 6.7 4.7 0 0z" class="g4_1" id="path19" fill="#87be2e"/><path d="M71.3 111c3.2-3 .2 0 14.4-14.2-1.6 1-13.4 8.8-14.6 9.5 0-3.3-.1-6.3-.1-8.8L76.5 75l-6.7 13.1c-.4-.7-.8-1.5-1.3-2.4-3.3-6.4-8.8-17.9-6.7-24.4-4.2 6.8-.7 21.2 1.2 29-.1 1.7-.4 5.6-.8 10.9-23.8-11-23-16.3-23-16.3s-1.6 6.3 22.6 21.3c-.3 3.3-.5 6.9-.9 10.8-6.3-5.1-12.1-7-19.3-7.1 7.9 1.4 14.4 5.4 18.7 13.4-2 24.3-4.6 52.3-6.7 67.7-.8 6.1 29.4 3.5 26.2-2-7.9-13.9-7.8-51.6-8.5-78z" class="g3_1" id="path21" fill="#595959"/></svg>