<svg xmlns="http://www.w3.org/2000/svg" width="146.5" height="196.3" viewBox="0 0 146.5 196.3" id="svg2" display="block"><defs id="defs4"><style id="style9"><![CDATA[

.g1_1{
fill: #FFFFFF;
}
.g2_1{
fill: #FFD60F;
}
.g3_1{
fill: #595959;
}
.g4_1{
fill: #87BE2E;
}
.g5_1{
fill: #2BE6F0;
}
.g6_1{
fill: #84BC28;
}
.g7_1{
fill: #545454;
}
.g8_1{
fill: #2CEDF7;
}


]]></style></defs><path d="M107.5 63.2C107.2 33.2 92 9 73.2 9 54.5 9 39.3 33.2 39 63.2h-8.9C30.3 28.3 49.6 0 73.2 0c23.7 0 43 28.3 43.2 63.2h-8.9z" class="g3_1" id="path11" fill="#595959"/><path d="M104.8 173.8H83.5v6.7l-12.1-17.9 12.1-17.9v6.7c17.9.3 30.2.3 35.3-5.5-10.7 26.3-10.1 27.9-14 27.9zm-40.4 0H41.7c-3.9 0-3.3-1.6-14-27.9 5.2 5.9 18 5.8 36.7 5.4v22.5zm-36.5-36.2c.6-3.4 7.2-13.1 9.1-15.6l-6.1-2.7 21.3-3.7L63.6 134l-6.2-2.8L46 149.1c-6.5 0-20-1.6-18.1-11.5zm27.3-52.3c8.4-5.6 15 6.3 17.5 12.3l-12.5 17.8L42.1 102c.7-1.1 9.9-14.6 13.1-16.7zm38.7-1.2l8.4 20.3 6.6-2.4L96 119.4 75.1 114l6-2.1c-6.4-16.4-11.1-27.5-18.3-30 28.4-.2 29.7-1.4 31.1 2.2zm24.7 53.5c1.9 9.9-11.6 11.5-18.1 11.5L88 127.2l22-5.7c.8 1 7.9 12.3 8.6 16.1zm18.5-74.4H9.4L0 196.3h146.5l-9.4-133.1z" class="g4_1" id="path13" fill="#87be2e"/></svg>