<svg xmlns="http://www.w3.org/2000/svg" width="164.804" height="147.9" viewBox="0 0 164.804 147.89999" id="svg2" display="block"><defs id="defs4"><style id="style9"><![CDATA[

.g1_1{
fill: #FFFFFF;
}
.g2_1{
fill: #FFD60F;
}
.g3_1{
fill: #595959;
}
.g4_1{
fill: #87BE2E;
}
.g5_1{
fill: #2BE6F0;
}
.g6_1{
fill: #84BC28;
}
.g7_1{
fill: #545454;
}
.g8_1{
fill: #2CEDF7;
}


]]></style></defs><path d="M145.4 46.7v54.9C153 95 157.1 87 158.5 79.5c2.5-13.1-2.6-25.6-13.1-32.8zm-73.4.5h54.8V18.5H72zm92.1 33.4c-3.1 16.5-17.8 35.5-49.5 39.2-2.1.3-4.2.4-6.3.4-13.2 0-25.9-4.9-34.7-13.6l-.3-.3c-.6-1-.2-2.6.3-3.5-2.6-3.2-4.3-7.1-4-11.2-.2-1.5-.1-3 .1-4.4-2.4-3.9-3.1-8.8-2-13.2-2.2-2.7-4.6-5.4-7.1-7.9-2.3-2.3-4.7-4.6-7.2-6.6V26.1C53.4 11.7 65 0 79.4 0h39.9c14.4 0 26.1 11.7 26.1 26.1V40c14.5 8.1 21.8 23.9 18.7 40.6zm-18.7 49.5h14v17.8h-120v-17.8h14V93.4c1.1.8 2.1 2 2.8 3.2 1.9 4.9 5.7 8.3 10.1 11.8.9.7 1.9 1.5 2.9 2.3 12.2 9.6 28.4 16.1 46 14 12.3-1.4 22.3-5 30.2-9.7v15.1z" class="g3_1" id="path11" fill="#595959"/><path d="M0 37.1c13.1 14.4 11.2 36.5 20.5 53.3 9.2 16.5 29.3 30.8 48.7 20.3-10-20.7-25.3-42.8-43-57.9 19.8 13 35.5 32.4 47.1 53.5C99.7 82.1 69.4 32.9 0 37.1z" class="g4_1" id="path13" fill="#87be2e"/></svg>