<svg xmlns="http://www.w3.org/2000/svg" width="142.2" height="181.5" viewBox="0 0 142.2 181.5" id="svg2" display="block"><defs id="defs4"><style id="style9"><![CDATA[

.g1_1{
fill: #FFFFFF;
}
.g2_1{
fill: #FFD60F;
}
.g3_1{
fill: #595959;
}
.g4_1{
fill: #87BE2E;
}
.g5_1{
fill: #2BE6F0;
}
.g6_1{
fill: #84BC28;
}
.g7_1{
fill: #545454;
}
.g8_1{
fill: #2CEDF7;
}


]]></style></defs><path d="M129 59.5h-25.9c-.6 0-1.1-.4-1.1-1s.5-1.1 1.1-1.1H129c.6 0 1 .5 1 1.1 0 .6-.4 1-1 1zm0 5.7h-25.9c-.6 0-1.1-.5-1.1-1.1 0-.6.5-1 1.1-1H129c.6 0 1 .4 1 1s-.4 1.1-1 1.1zm0 5.6h-25.9c-.6 0-1.1-.5-1.1-1 0-.6.5-1.1 1.1-1.1H129c.6 0 1 .5 1 1.1 0 .5-.4 1-1 1zm1.5-27.5V20.2c0-1.4-1.1-2.5-2.5-2.5-1.3 0-2.4 1.1-2.4 2.5v23.1h-19.1V20.2c0-1.4-1.1-2.5-2.5-2.5s-2.5 1.1-2.5 2.5v23.1H89.9v9.6h3.4v15c0 7.5 4.7 13.9 11.3 16.4v6.1h8.9v66.1c0 11-8.9 19.9-19.9 19.9H58.7c-10.9 0-19.8-8.9-19.8-19.9v-5.6h-5.2v5.6c0 13.8 11.3 25 25 25h34.9c13.8 0 25-11.2 25-25V90.4h8.8v-6.1c6.7-2.5 11.4-8.9 11.4-16.4v-15h3.4v-9.6h-11.7z" class="g3_1" id="path11" fill="#595959"/><path d="M64.7 85.1c0 35.7-12.7 44.1-28.4 44.1S7.9 120.8 7.9 85.1C7.9 49.5 20.6 0 36.3 0s28.4 49.5 28.4 85.1z" class="g2_1" id="path13" fill="#ffd60f"/><path d="M36.3 152.1c-6.8 0-23.3-12.5-28.4-40.3C2.3 80.7 12.5 56.9 0 40.9c16.7-.8 33.8 55.3 36.3 80.1.8-32.3 21.2-50.1 34-80.9-2.4 23.1-.2 54.2-3.2 71.4-4.9 28.1-23.4 40.6-30.8 40.6z" class="g4_1" id="path15" fill="#87be2e"/></svg>