<svg xmlns="http://www.w3.org/2000/svg" width="114.7" height="162.2" viewBox="0 0 114.7 162.2" id="svg2" display="block"><defs id="defs4"><style id="style9"><![CDATA[

.g1_1{
fill: #FFFFFF;
}
.g2_1{
fill: #FFD60F;
}
.g3_1{
fill: #595959;
}
.g4_1{
fill: #87BE2E;
}
.g5_1{
fill: #2BE6F0;
}
.g6_1{
fill: #84BC28;
}
.g7_1{
fill: #545454;
}
.g8_1{
fill: #2CEDF7;
}


]]></style></defs><path d="M42.4 59.9l-.8 6h26.1l-9.6 16h41.4v-22H42.4zM38 143.8h61.5v-22H38zm14.8-52.9h46.7v21.9H39.6l13.2-21.9z" class="g4_1" id="path11" fill="#87be2e"/><path d="M54.1 73.6H32.7l6.9-47.3L0 92.6h21.4l-6.8 47.3 39.5-66.3z" class="g3_1" id="path13" fill="#595959"/><path d="M95.3 10.6H83.5V0H54.1v10.6H42.3c-2.4 0-4.3 1.9-4.3 4.3 0 2.3 1.9 4.2 4.3 4.2h53c6 0 10.9 4.9 10.9 10.9v112.7c0 6.1-4.9 11-10.9 11h-53c-6.1 0-11-4.9-11-11 0-2.3-1.9-4.2-4.2-4.2-2.4 0-4.3 1.9-4.3 4.2 0 10.8 8.7 19.5 19.5 19.5h53c10.7 0 19.4-8.7 19.4-19.5V30c0-10.7-8.7-19.4-19.4-19.4z" class="g3_1" id="path15" fill="#595959"/></svg>