<svg xmlns="http://www.w3.org/2000/svg" width="138.409" height="160.9" viewBox="0 0 138.40865 160.89999" id="svg2" display="block"><defs id="defs4"><style id="style9"><![CDATA[

.g1_1{
fill: #FFFFFF;
}
.g2_1{
fill: #FFD60F;
}
.g3_1{
fill: #595959;
}
.g4_1{
fill: #87BE2E;
}
.g5_1{
fill: #2BE6F0;
}
.g6_1{
fill: #84BC28;
}
.g7_1{
fill: #545454;
}
.g8_1{
fill: #2CEDF7;
}


]]></style></defs><path d="M62.245 42.5l.4 8.9 28-29.9L58.345 0l1.1 9c-13.4 3-25.5 8.7-35.9 17.8-36.9 32.1-29.3 88.2 14.9 108.6.4.2.4-.2.1-.6-34.1-35-17.1-89.3 23.7-92.3z" class="g3_1" id="path11" fill="#595959"/><path d="M76.145 118.4l-.4-8.8-28 29.9 32.3 21.4-1.1-8.9c13.4-3 25.5-8.7 36-17.8 36.8-32.2 29.2-88.2-15-108.6-.4-.2-.4.2 0 .5 34 35.1 17.1 89.4-23.8 92.3z" class="g4_1" id="path13" fill="#87be2e"/></svg>