<svg xmlns="http://www.w3.org/2000/svg" width="214.326" height="167.275" viewBox="0 0 214.32593 167.27499" id="svg2" display="block"><defs id="defs4"><style id="style9"><![CDATA[

.g1_1{
fill: #FFFFFF;
}
.g2_1{
fill: #FFD60F;
}
.g3_1{
fill: #595959;
}
.g4_1{
fill: #87BE2E;
}
.g5_1{
fill: #2BE6F0;
}
.g6_1{
fill: #84BC28;
}
.g7_1{
fill: #545454;
}
.g8_1{
fill: #2CEDF7;
}


]]></style></defs><path d="M134.326 117.475v34.4c0 3.2-2.6 5.8-5.8 5.8h-92.9c-3.2 0-5.8-2.6-5.8-5.8v-67.3c0-3.2-2.6-5.7-5.7-5.7h-9.1c-2.8 0-4.1-3.4-2.1-5.3l63.5-58.3c3.2-2.9 8.1-2.9 11.3 0l14.7 13.6c2 1.8 5 1.6 6.8-.3v-.1c1.8-1.9 1.7-4.9-.2-6.7l-21.3-19.6c-3.2-2.9-8.1-2.9-11.3 0l-72.8 66.8c-7.5 7-2.6 19.5 7.7 19.5h8.8v69.9c0 4.9 4 8.9 9 8.9h105.9c4.9 0 8.9-4 8.9-8.9v-40.9c0-2.4-1.9-4.5-4.3-4.7h-.1c-2.8-.3-5.2 1.9-5.2 4.7z" class="g3_1" id="path11" fill="#595959"/><path d="M47.326 58.475c9.5 9.3 9 24.3 16 35.4 6.8 10.8 19.9 20.5 32.6 12.6-7.5-13.6-17.6-28.8-30.2-38.3 13.9 8 25.9 19.7 35.2 32.3 16.6-17.1-9.3-47.2-53.6-42zm167-52.5c-17.5 17.1-16.7 44.9-29.5 65.2-12.7 20-36.7 38-60.3 23.5 14-25.3 32.6-53.3 55.8-70.9-25.6 14.9-47.7 36.4-64.9 59.7-30.8-31.6 17.1-87.2 98.9-77.5z" class="g4_1" id="path13" fill="#87be2e"/></svg>