<svg xmlns="http://www.w3.org/2000/svg" width="145.2" height="190.9" viewBox="0 0 145.2 190.89999" id="svg2" display="block"><defs id="defs4"><style id="style9"><![CDATA[

.g1_1{
fill: #FFFFFF;
}
.g2_1{
fill: #FFD60F;
}
.g3_1{
fill: #595959;
}
.g4_1{
fill: #87BE2E;
}
.g5_1{
fill: #2BE6F0;
}
.g6_1{
fill: #84BC28;
}
.g7_1{
fill: #545454;
}
.g8_1{
fill: #2CEDF7;
}


]]></style></defs><path d="M72.5 61.5H47.9L57.7 0 0 88.4h24.5l-9.8 61.4 57.8-88.3z" class="g3_1" id="path11" fill="#595959"/><path d="M61.3 66.9H41.4l6.4-40-36.7 56H31l-6.4 40 36.7-56z" class="g2_1" id="path13" fill="#ffd60f"/><path d="M96.8 77.4L81.7 65.5l15.1-11.9v23.8zm0 38.1l-15.7-12.4 15.7-11.7v24.1zm-19.4 29.8l-19-25.3 18.4-13.7 18.8 14.9-18.2 24.1zM106 94.5l22.5 24.2H106V94.5zm0-37.7L128.5 81H106V56.8zm8.3 130.9c.5 1.9 2.4 3.2 4.5 3.2 1.5 0 2.8-.6 3.7-1.7.8-1 1.1-2.3.8-3.5L107 125.4h27.1v13.1h11.1v-11.9l-35.8-38.9h24.7v12.9h11.1V88.9l-41.6-47.5L84.5 3.8H69.1c-2 0-3.7 1.3-3.9 3-.1.9.2 1.8.9 2.5s1.7 1.2 2.8 1.2h11l17.2 31.9H69.2c-2.6 0-4.8 1.8-4.9 4-.1 1.2.3 2.2 1.2 3.1.8.8 2.1 1.3 3.4 1.3h23l-3 2.4c-8.6 6.7-13.1 10.3-13.4 10.5-.5.5-.8 1.2-.7 1.9 0 .7.3 1.3.9 1.8L96.8 84v.8l-.4.4-19.5 14.6-11.7-9.2c-.6-.5-1.4-.7-2.2-.6-.8.1-1.4.6-1.9 1.2-.7 1.1-.5 2.4.5 3.2l10.9 8.6-22.7 17c-.5.6-.9 1.9-6.5 22.9-2.6 9.6-6.3 23.3-11.6 42.8-.3 1-.1 2.1.5 3.1s1.7 1.7 2.9 1.9c2.5.6 5-.8 5.6-3l16.4-60.6 17 22.7-24.7 32.9c-.8 1.1-.7 2.6.3 3.4.6.5 1.4.8 2.2.7.8-.1 1.6-.5 2-1.1l23.5-31.4 23.6 31.4c.5.7 1.4 1.1 2.3 1.1 1.1 0 2-.5 2.5-1.4.4-.8.3-1.8-.2-2.5l-24.8-33.1L97.9 127l16.4 60.7z" class="g3_1" id="path15" fill="#595959"/></svg>