<svg xmlns="http://www.w3.org/2000/svg" width="225" height="180.767" viewBox="0 0 225 180.76726" id="svg2" display="block"><defs id="defs4"><style id="style9"><![CDATA[

.g1_1{
fill: #FFFFFF;
}
.g2_1{
fill: #FFD60F;
}
.g3_1{
fill: #595959;
}
.g4_1{
fill: #87BE2E;
}
.g5_1{
fill: #2BE6F0;
}
.g6_1{
fill: #84BC28;
}
.g7_1{
fill: #545454;
}
.g8_1{
fill: #2CEDF7;
}


]]></style></defs><path d="M99.1.767c12.3 11.9 11.7 31.4 20.7 45.6 8.9 14 25.7 26.6 42.2 16.4-9.8-17.6-22.8-37.3-39.1-49.6 18 10.4 33.5 25.5 45.5 41.8 22.8-23.3-13.9-60.8-69.3-54.2zm3.6 32.8c-11.2-4.5-23.7-7.3-36-7.1 12 1.2 24.7 7.2 35.1 13.1-5.2 10.2-17.6 9.1-26.4 4.7-9-4.4-14.7-14.5-24.6-16.7 26.2-20.5 56.1-12.7 51.9 6z" class="g4_1" id="path11" fill="#87be2e"/><path d="M23.5 164.667h6.4v-16.1h-6.4zm-7.9 0h6.3v-16.1h-6.3zm101.7 0h6.3v-16.1h-6.3zm-1.7 1.6h17.5v-19.3h-17.5zm-50.8 0h17.5v-19.3H64.8zm-50.8 0h17.5v-19.3H14zm211 14.5H0v-37.9l49-26.4v26.4l49-26.4v26.4l49-26.4v64.3l18.3-112.6h41.4l18.3 112.6zm-150.6-16.1h6.3v-16.1h-6.3zm50.8 0h6.3v-16.1h-6.3zm-58.8-16.1h6.3v16.1h-6.3z" class="g3_1" id="path13" fill="#595959"/></svg>