<svg xmlns="http://www.w3.org/2000/svg" width="154.4" height="201.3" viewBox="0 0 154.39999 201.3" id="svg2" display="block"><defs id="defs4"><style id="style9"><![CDATA[

.g1_1{
fill: #FFFFFF;
}
.g2_1{
fill: #FFD60F;
}
.g3_1{
fill: #595959;
}
.g4_1{
fill: #87BE2E;
}
.g5_1{
fill: #2BE6F0;
}
.g6_1{
fill: #84BC28;
}
.g7_1{
fill: #545454;
}
.g8_1{
fill: #2CEDF7;
}


]]></style></defs><path d="M85 125c-1.4.8-3.1 1.4-5 1.7l31.4 74.6 10.8-34.5 32.2 16.4-35.9-85c-.5 2.3-1.6 4.5-3.1 6.3L85 125zm-14.5-3c1.6.6 3.3 1.1 5.3 1.2l-32.9 78.1-10.8-34.5L0 183.2 34.2 102c1 1.6 2.4 3 4 4.1L70.5 122z" class="g2_1" id="path11" fill="#ffd60f"/><path d="M77.2 116.2c-27.9 0-50.6-22.7-50.6-50.5 0-27.9 22.7-50.6 50.6-50.6 27.8 0 50.5 22.7 50.5 50.6 0 27.8-22.7 50.5-50.5 50.5zm59.4-60.9c-1.7-1.6-3.5-3.4-3.8-4.5-.4-1.4.4-3.9 1-6.1 1.1-3.9 2.3-8.2.2-11.9-2.1-3.7-6.6-4.8-10.5-5.8-2.2-.5-4.7-1.1-5.6-2.1-1-.9-1.6-3.4-2.1-5.6-1-3.9-2.1-8.4-5.8-10.5-3.7-2.1-8-.9-11.9.2-2.2.7-4.7 1.4-6 1-1.2-.3-3-2.1-4.6-3.7-2.8-3-6-6.3-10.3-6.3-4.4 0-7.6 3.3-10.4 6.3-1.6 1.6-3.4 3.4-4.6 3.7-1.3.4-3.8-.3-6-1-3.9-1.1-8.2-2.3-11.9-.2-3.7 2.1-4.8 6.6-5.8 10.5-.5 2.2-1.1 4.7-2.1 5.6-.9 1-3.4 1.6-5.6 2.1-3.9 1-8.4 2.1-10.5 5.8-2.1 3.7-.9 8 .2 11.9.6 2.2 1.4 4.7 1 6.1-.3 1.1-2.1 2.9-3.8 4.5-2.9 2.8-6.2 6-6.2 10.4s3.3 7.5 6.2 10.4c1.7 1.5 3.5 3.3 3.8 4.5.4 1.3-.4 3.8-1 6.1-1.1 3.8-2.3 8.1-.2 11.8 2.1 3.7 6.6 4.8 10.5 5.8 2.2.5 4.7 1.2 5.6 2.1 1 .9 1.6 3.4 2.1 5.7 1 3.9 2.1 8.3 5.8 10.4 3.7 2.2 8 .9 11.9-.2 2.2-.6 4.7-1.4 6-1 1.2.3 3 2.2 4.6 3.8 2.8 2.9 6 6.2 10.4 6.2 4.3 0 7.5-3.3 10.3-6.2 1.6-1.6 3.4-3.5 4.6-3.8 1.3-.4 3.8.4 6 1 3.9 1.1 8.2 2.4 11.9.2 3.7-2.1 4.8-6.5 5.8-10.4.5-2.3 1.1-4.8 2.1-5.7.9-.9 3.4-1.6 5.6-2.1 3.9-1 8.4-2.1 10.5-5.8 2.1-3.7.9-8-.2-11.8-.6-2.3-1.4-4.8-1-6.1.3-1.2 2.1-3 3.8-4.5 2.9-2.9 6.2-6 6.2-10.4s-3.3-7.6-6.2-10.4z" class="g3_1" id="path13" fill="#595959"/><path d="M79.8 85.4v19.2c21.9-3.8 28.4-24.2 26.2-45.3L79.8 85.4zm-5.3-37.6V26.7c-2.1 1.7-5.2 8.3-7.8 13.4l7.8 7.7zm0 37.6L48.3 59.3c-2.2 21.3 4.4 41.5 26.2 45.3V85.4zm5.3-7.2l18-18c-.9-6-3-11.9-5.6-17.2L79.8 55.5v22.7zm-5.3-22.7L62.1 43c-2.6 5.3-4.7 11.2-5.6 17.2l18 18V55.5zm5.3-28.8c2.1 1.7 5.2 8.3 7.8 13.4l-7.8 7.7V26.7z" class="g4_1" id="path15" fill="#87be2e"/></svg>