<svg xmlns="http://www.w3.org/2000/svg" width="151.217" height="164.259" viewBox="0 0 151.21709 164.25908" id="svg2" display="block"><defs id="defs4"><style id="style9"><![CDATA[

.g1_1{
fill: #FFFFFF;
}
.g2_1{
fill: #FFD60F;
}
.g3_1{
fill: #595959;
}
.g4_1{
fill: #87BE2E;
}
.g5_1{
fill: #2BE6F0;
}
.g6_1{
fill: #84BC28;
}
.g7_1{
fill: #545454;
}
.g8_1{
fill: #2CEDF7;
}


]]></style></defs><path d="M134.71 33.96l-21.3 28.8-34.7-8.9 10-3.5c-10.7-27.2-18.5-45.7-30.4-49.8 47.2-.3 49.2-2.3 51.7 3.7l13.9 33.6 10.8-3.9z" class="g4_1" id="path11" fill="#87be2e"/><path d="M45.61 6.16c-5.3 3.5-20.5 25.9-21.6 27.8l30 22.3 20.7-29.7c-4.1-9.9-15.1-29.7-29.1-20.4z" class="g3_1" id="path13" fill="#595959"/><path d="M92.61 115.86v-11.1l-20 29.7 20 29.8v-11.1h35.4c6.5 0 5.4-2.6 23.2-46.3-8.4 9.5-28.8 9.5-58.6 9z" class="g4_1" id="path15" fill="#87be2e"/><path d="M.01 106.86c17.8 43.7 16.8 46.3 23.2 46.3h37.7v-37.3c-31 .5-52.2.7-60.9-9z" class="g3_1" id="path17" fill="#595959"/><path d="M150.91 92.96c-1.2-6.2-12.9-24.9-14.3-26.7l-36.5 9.5 20.8 36.3c10.7 0 33.2-2.6 30-19.1z" class="g3_1" id="path19" fill="#595959"/><path d="M30.41 112.06l18.9-29.7 10.3 4.6-18.9-30.4-35.3 6.1 10 4.4c-3 4.2-14 20.3-15.1 25.9-3.2 16.5 19.3 19.1 30.1 19.1z" class="g4_1" id="path21" fill="#87be2e"/></svg>