<svg xmlns="http://www.w3.org/2000/svg" width="213.217" height="201.35" viewBox="0 0 213.21716 201.35001" id="svg2" display="block"><defs id="defs4"><style id="style9"><![CDATA[

.g1_1{
fill: #FFFFFF;
}
.g2_1{
fill: #FFD60F;
}
.g3_1{
fill: #595959;
}
.g4_1{
fill: #87BE2E;
}
.g5_1{
fill: #2BE6F0;
}
.g6_1{
fill: #84BC28;
}
.g7_1{
fill: #545454;
}
.g8_1{
fill: #2CEDF7;
}


]]></style></defs><path d="M167.517 155.1c-6.9-18.9-28.4-74.4-28.4-74.4-.6-1.6-2.7-2.8-4.8-2.8h-100.9c-2.1 0-4.2 1.2-4.8 2.8 0 0-21.5 55.5-28.4 74.4-1 2.7 1.6 4.9 4.8 4.9h65.1v31.2h27.5V160h65.1c3.2 0 5.8-2.2 4.8-4.9z" class="g3_1" id="path11" fill="#595959"/><path d="M147.717 20.9c-24.6 0-44.5 20-44.5 44.6h39.7c2.1 0 4.2 1.2 4.8 2.7 0 0 7.5 19.5 15.1 39.2 17.2-6.2 29.5-22.6 29.5-41.9 0-24.6-20-44.6-44.6-44.6z" class="g2_1" id="path13" fill="#ffd60f"/><path d="M164.917 7.8l-1.1 2.5c-1.2 2.8.2 6.2 3.1 7.4l1.5.6c2.8 1.2 6.2-.2 7.4-3l1-2.5c1.2-2.9-.2-6.2-3-7.4l-1.5-.6c-2.9-1.2-6.2.1-7.4 3zm-74.8 40.5l2.4 1.1c2.9 1.2 6.2-.2 7.4-3.1l.6-1.5c1.2-2.8-.1-6.2-3-7.4l-2.4-1c-2.9-1.2-6.2.2-7.4 3l-.7 1.5c-1.2 2.9.2 6.2 3.1 7.4zm107.8 45.2l2.5 1c2.9 1.3 6.2-.1 7.4-3l.6-1.5c1.2-2.9-.1-6.2-3-7.4l-2.5-1c-2.8-1.2-6.2.1-7.4 3l-.6 1.5c-1.2 2.9.2 6.2 3 7.4zm-78.8-80.9l1 2.4c1.2 2.9 4.5 4.3 7.4 3.1l1.5-.6c2.8-1.2 4.2-4.5 3-7.4l-1-2.4c-1.1-2.9-4.5-4.3-7.3-3.1l-1.5.6c-2.9 1.2-4.3 4.5-3.1 7.4zm44.3 108.2l1 2.5c1.2 2.9 4.5 4.3 7.4 3.1l1.5-.6c2.9-1.2 4.3-4.5 3.1-7.4l-1-2.5c-1.2-2.9-4.5-4.3-7.4-3.1l-1.5.6c-2.9 1.2-4.3 4.5-3.1 7.4zm32.3-74.1l-.6-1.5c-1.2-2.9.2-6.2 3.1-7.4l2.4-1c2.9-1.2 6.2.2 7.4 3.1l.6 1.5c1.2 2.9-.2 6.2-3.1 7.4l-2.4 1c-2.9 1.2-6.2-.2-7.4-3.1zm-94.8-18.9l1.8 1.8c2.2 2.2 5.8 2.2 8 0l1.2-1.1c2.2-2.2 2.2-5.8 0-8l-1.9-1.9c-2.2-2.2-5.8-2.2-8 0l-1.1 1.2c-2.3 2.2-2.3 5.8 0 8zm82.7 82.7l1.8 1.8c2.2 2.3 5.8 2.3 8 0l1.2-1.1c2.2-2.2 2.2-5.8 0-8l-1.9-1.9c-2.2-2.2-5.8-2.2-8 0l-1.1 1.2c-2.2 2.2-2.2 5.8 0 8zm9.1-80.9l1.9-1.8c2.2-2.2 2.2-5.8 0-8l-1.2-1.2c-2.2-2.2-5.8-2.2-8 0l-1.8 1.9c-2.2 2.2-2.2 5.8 0 8l1.1 1.1c2.2 2.2 5.8 2.2 8 0zm-104.8 42.3h2.7c3.1 0 5.6-2.5 5.6-5.6v-1.6c0-3.2-2.5-5.7-5.6-5.7h-2.7c-3.1 0-5.6 2.5-5.6 5.7v1.6c0 3.1 2.5 5.6 5.6 5.6zm117 0h2.6c3.2 0 5.7-2.5 5.7-5.6v-1.6c0-3.2-2.5-5.7-5.7-5.7h-2.6c-3.2 0-5.7 2.5-5.7 5.7v1.6c0 3.1 2.5 5.6 5.7 5.6zm-56.4-57.9h-1.6c-3.1 0-5.6-2.5-5.6-5.7V5.7c0-3.2 2.5-5.7 5.6-5.7h1.6c3.2 0 5.7 2.5 5.7 5.7v2.6c0 3.2-2.5 5.7-5.7 5.7z" class="g2_1" id="path15" fill="#ffd60f"/><path d="M143.117 103.6h-36.7l-3.2-22.9h27.8c2.1 0 4.2 1.2 4.8 2.7l7.3 20.2zm9.3 25.7h-42.4l-3.2-22.9h37.3l8.3 22.9zm3.5 25.8h-42.2l-3.3-23h43l7.3 20.2c.6 1.5-1.6 2.8-4.8 2.8zm-96.1 0l2.5-23h42.9l2.7 23h-48.1zm-52.8-2.8l7.1-20.2h43l-3.1 23h-42.2c-3.2 0-5.4-1.3-4.8-2.8zm57-71.6l-3.1 22.9h-36.7l7.2-20.2c.5-1.5 2.7-2.7 4.8-2.7h27.8zm-6.5 48.6h-42.4l8.2-22.9h37.2l-3 22.9zm7.5-22.9h37.3l2.6 22.9h-42.3l2.4-22.9zm34.4-25.7l2.6 22.9h-36.7l2.5-22.9h31.6z" class="g8_1" id="path17" fill="#2cedf7"/><path d="M64.717 184.1c-.8 0-1.3 0-1.8.2-.8.3-1.5.9-1.8 1.6-.1.2-.2.4-.3.9-.6 1.8-1.1 3.4-2.2 6.8-.1.2-.1.3-.2.5-.2 1.1.4 2.4 1.4 3.1.5.3 1.1.5 1.8.5 15.1-.2 30.5-.2 44.5 0 2.2 0 3.4-2.1 3-3.7-.1-.2-.2-.7-.4-1.1-1.1-3.2-1.4-4.2-2.1-6.2-.2-.6-.4-1.1-.8-1.5-.4-.5-.9-.8-1.4-.9-.6-.2-1.2-.2-1.8-.2-11.7-.4-18.9-.9-18.9-1.4 0-.8 19.2-1.4 20.1-1.3 1.6 0 3 .7 4.1 1.7.8.7 1.2 1.6 1.6 2.6.8 2 1.1 2.9 2.3 6 .2.5.4.8.5 1.5.7 2.4-.3 5.3-2.4 6.8-1.1.8-2.5 1.2-3.8 1.2-14 .2-29.4.2-44.5 0-1.2.1-2.7-.3-3.8-1.1-2.2-1.5-3.2-4.2-2.6-6.7.2-.8.1-.7.4-1.5 1.2-3.2 1.6-4.2 2.3-6.1.3-1 .8-1.9 1.6-2.6.7-.8 1.6-1.3 2.6-1.6.9-.3 2-.3 2.6-.2 25.3.7 25.3 1.9 0 2.7z" class="g3_1" id="path19" fill="#595959"/></svg>