<svg xmlns="http://www.w3.org/2000/svg" width="178.957" height="194.5" viewBox="0 0 178.95688 194.5" id="svg2" display="block"><defs id="defs4"><clipPath id="c0_1"><path d="M.1 1356.6V0h1161v1356.6z" id="path7"/></clipPath><style id="style9"><![CDATA[

.g1_1{
fill: #FFFFFF;
}
.g2_1{
fill: #FFD60F;
}
.g3_1{
fill: #595959;
}
.g4_1{
fill: #87BE2E;
}
.g5_1{
fill: #2BE6F0;
}
.g6_1{
fill: #84BC28;
}
.g7_1{
fill: #545454;
}
.g8_1{
fill: #2CEDF7;
}


]]></style></defs><path d="M39.757 38.5c-1.1-2.2-3.8-3.1-5.9-1.8-12.8 7.4-21 18.7-23.9 32.7-3.2 15.7-1.8 22.5-.9 27 1.9 8.9-16 21.5-6 34.2 2.7 3.4 6.3 4.4 8.9 4.9 3.6 31.2 13.1 30.3 26.4 31.6 2.6 10.4 2.4 23.6 2.4 27.4h64.6c-1-25.2.6-30.5 8-42.6 5.4-8.8 14.3-23.3 15.3-47 .1-2.4-1.8-4.4-4.2-4.4-2.3 0-4.1 1.8-4.2 4-1 22.7-9.7 35.9-14.9 44.4-8.3 13.5-9.1 28.2-8.7 37.2h-47.6c-.1-5.9-1.9-25.5-5.3-26.5-12.8-3.7-20.4 6.5-23.7-27.9-.6-5.6-7.9-3-10.4-6.3-2.4-3-.7-7.5 3-13.6 11.6-19.1-.6-11 5.6-40.7 2.5-12.5 10-21.4 19.8-27.1 1.9-1.2 2.6-3.5 1.7-5.5z" class="g3_1" id="path11" fill="#595959"/><path d="M49.757 0c4.7 20.2-2.7 41.6 2.6 61.7 4.5 16.7 17.2 42.1 40.7 38-3.1-24.6-9-53-21.9-74.5 15.7 20.1 26.5 44.4 32.8 68.5 34.7-15.3 14.2-75.1-54.2-93.7zm78.8 83.7c9.2-10.2 20.7-19.3 33.5-25.1-11.8 7.2-21.9 19.6-29.7 30.9 10.5 8 23.2-1.2 29.6-8.2 7.7-8.4 9.5-20.9 17-29.5-37.1-8.2-64.1 14.7-50.4 31.9zm10.9-78.4c.1 8.6 5.3 16.6 5.2 25.2-.1 7.3-2.7 18.9-12.7 19.6-1.2-10.3-1.7-22.4 1.3-32.5-4.3 9.8-6.2 20.7-6.3 31.2-16.6-2.9-12.7-29.6 12.5-43.5z" class="g4_1" id="path13" fill="#87be2e"/></svg>