<svg xmlns="http://www.w3.org/2000/svg" width="165" height="165" viewBox="0 0 165 165" id="svg2" display="block"><defs id="defs4"><clipPath id="c0_1"><path d="M.1 1356.6V0h1161v1356.6z" id="path7"/></clipPath><style id="style9"><![CDATA[

.g1_1{
fill: #FFFFFF;
}
.g2_1{
fill: #FFD60F;
}
.g3_1{
fill: #595959;
}
.g4_1{
fill: #87BE2E;
}
.g5_1{
fill: #2BE6F0;
}
.g6_1{
fill: #84BC28;
}
.g7_1{
fill: #545454;
}
.g8_1{
fill: #2CEDF7;
}


]]></style></defs><path d="M165 82.5c0 45.5-36.9 82.5-82.5 82.5C37 165 0 128 0 82.5 0 36.9 37 0 82.5 0 128.1 0 165 36.9 165 82.5z" class="g3_1" id="path11" fill="#595959"/><path d="M82.5 70.4c-6.7 0-12.1 5.4-12.1 12.1 0 6.6 5.4 12 12.1 12 6.7 0 12.1-5.4 12.1-12 0-6.7-5.4-12.1-12.1-12.1zm34.8-48.8l-24 41.2c.1.1.2.1.3.2 6.7 3.9 11.3 11.1 11.3 19.5v.5h47.7c1.6-21.7-15.8-51.8-35.3-61.4zm-34.9 83.3c-4.3 0-8.3-1.2-11.7-3.3L47 142.7c18 12.2 52.8 12.2 70.8 0l-23.6-41.1c-3.4 2.1-7.4 3.3-11.8 3.3zM60 83H12.5c-1.6-21.7 15.7-51.8 35.2-61.4l24 41.2C64.7 66.6 60 74 60 82.5v.5z" class="g2_1" id="path13" fill="#ffd60f"/></svg>