<svg xmlns="http://www.w3.org/2000/svg" width="143.1" height="173.5" viewBox="0 0 143.10001 173.5" id="svg2" display="block"><defs id="defs4"><clipPath id="c0_1"><path d="M.1 1356.6V0h1161v1356.6z" id="path7"/></clipPath><style id="style9"><![CDATA[

.g1_1{
fill: #FFFFFF;
}
.g2_1{
fill: #FFD60F;
}
.g3_1{
fill: #595959;
}
.g4_1{
fill: #87BE2E;
}
.g5_1{
fill: #2BE6F0;
}
.g6_1{
fill: #84BC28;
}
.g7_1{
fill: #545454;
}
.g8_1{
fill: #2CEDF7;
}


]]></style></defs><path d="M138.4 19.8H4.7c-2.6 0-4.7-2.1-4.7-4.7V4.7C0 2.1 2.1 0 4.7 0h133.7c2.6 0 4.7 2.1 4.7 4.7v10.4c0 2.6-2.1 4.7-4.7 4.7z" class="g3_1" id="path11" fill="#595959"/><path d="M81.2 139.3l-11.4-16.9 11.4-16.9v6.3c16.9.3 28.5.3 33.3-5.1-10.1 24.8-9.5 26.4-13.2 26.4H81.2v6.2zm-18-6.2H41.8c-3.7 0-3.1-1.6-13.2-26.4 4.9 5.6 17 5.4 34.6 5.1v21.3zM28.8 98.9c.6-3.3 6.8-12.4 8.5-14.8l-5.7-2.5 20.1-3.5 10.8 17.3-5.9-2.6-10.8 16.9c-6.1 0-18.8-1.5-17-10.8zm25.7-49.4c8-5.3 14.2 6 16.5 11.6L59.2 78l-17-12.7c.6-1.1 9.3-13.8 12.3-15.8zm36.6-1.1L99 67.5l6.1-2.2L93 81.7l-19.7-5 5.7-2.1c-6.1-15.4-10.5-25.9-17.3-28.3 26.8-.1 28-1.2 29.4 2.1zm23.2 50.5c1.8 9.3-10.9 10.8-17 10.8L85.5 89.1l20.7-5.4c.8 1 7.4 11.6 8.1 15.2zm-22.8 61.5c0-10.5 8.6-19.1 19.1-19.1 3.7 0 7.1 1.1 10.1 3 3.6-20.4 8.8-58.4 15.2-117.8H7.2c9.7 89.8 16.7 130.7 19.4 135.8 3.7 6.7 10.8 11.2 18.9 11.2h51.3c-3.3-3.4-5.3-8-5.3-13.1z" class="g4_1" id="path13" fill="#87be2e"/><path d="M97.4 160.4c0 7.2 5.9 13.1 13.2 13.1 7.2 0 13.1-5.9 13.1-13.1 0-7.3-5.9-13.1-13.1-13.1-7.3 0-13.2 5.8-13.2 13.1z" class="g3_1" id="path15" fill="#595959"/></svg>