<svg xmlns="http://www.w3.org/2000/svg" width="155.178" height="174.392" viewBox="0 0 155.17807 174.39198" id="svg2" display="block"><defs id="defs4"><clipPath id="c0_1"><path d="M.1 1356.6V0h1161v1356.6z" id="path7"/></clipPath><style id="style9"><![CDATA[

.g1_1{
fill: #FFFFFF;
}
.g2_1{
fill: #FFD60F;
}
.g3_1{
fill: #595959;
}
.g4_1{
fill: #87BE2E;
}
.g5_1{
fill: #2BE6F0;
}
.g6_1{
fill: #84BC28;
}
.g7_1{
fill: #545454;
}
.g8_1{
fill: #2CEDF7;
}


]]></style></defs><path d="M126.5 89.695c-5.6 5-11.5 9.7-17.6 14.1-.6 7.5-1.4 14.7-2.6 21.9 10.9 4.1 24.5 9 35.8 6.2 14.9-3.7 8.4-21-15.6-42.2zm-17.2-13.6c.3 5.8.3 11.7.1 17.5 4.4-3.3 7.6-5.9 11.1-8.9-3.4-2.8-7.2-5.7-11.2-8.6zm-8.2-5.7c-7.8-5.2-15.1-9.6-22.1-13.4-8.8 4.9-17.6 10.4-25.5 15.8-.3 7.5-.4 15.4-.1 24.2 8.2 5.9 16.7 11.3 25.6 16.2 7.7-4.2 15.2-8.8 22.4-13.8.5-9.7.4-19.4-.3-29zm-.4 38.9c-4.4 2.9-8.9 5.6-13.4 8.1 3.9 1.9 7.8 3.7 11.7 5.4.7-4.5 1.3-9 1.7-13.5zm-3 21.2c-5.9-2.5-11.7-5.1-18.7-8.7-8 4.2-15.7 7.6-22.1 10.1 5.5 29.8 16.5 43.2 27.2 32.8 8.3-8.2 11.3-22.7 13.6-34.2zm-42.1-6.3c5.1-2.1 10.2-4.3 15.2-6.8-5.8-3.2-11.4-6.7-16.9-10.4.4 6.1 1 11.9 1.7 17.2zm-1.8-56.3c6.9-4.6 14.1-9 21.4-13-6.4-3.4-12.8-6.5-19-9-1.1 6.9-1.9 14.4-2.4 22zm29.1-13c6 3.3 12 6.9 17.8 10.7-.5-6.2-1.3-12-2.3-18.2-5.1 2.2-10.3 4.7-15.5 7.5zm-31 70.7c-1-6.8-1.7-14-2.1-21.4-6.3-4.5-12.4-9.4-18.2-14.5-24.1 21.2-30.5 38.5-15.6 42.2 11.3 2.8 25-2.2 35.9-6.3zm-14.3-40.9c3.7 3.2 7.3 6 11.8 9.5-.1-6.3 0-12.5.3-18.7-4.4 3.1-8.4 6.2-12.1 9.2zm113.1 50.6c-5 4.2-12.4 4.6-18.5 4.2-9.3-.6-18.5-3-27.3-6.2-1.9 9.3-4.7 18.6-9.2 26.9-2.9 5.5-7.1 11.6-13.3 13.6-7 2.2-13.1-2-17.1-7.4-5.6-7.4-9.6-19.2-12.2-33.1-8.8 3.2-17.9 5.6-27.2 6.2-6.2.4-13.5 0-18.5-4.2-5.6-4.7-5.2-12.2-2.8-18.4 3.7-9.3 12.5-19.7 24.1-29.9-5.7-5.3-12.6-12.4-17.3-18.7 2.5-.7 4.6-2.2 6.1-4.2 4.8 6.7 10.9 12.6 17.1 18 4.8-3.9 9.9-7.8 15.3-11.5.5-9.2 1.5-18.1 2.8-26.2-20.1-7.8-36.9-9.8-42.2-.5-.2.4-.4.8-.5 1.2-2.5-.4-4.8-.1-7 .9 1.2-10.9 14.2-13.8 25.2-12.5 7 .9 15.6 3.4 25.1 7.2 1.8-9.9 4.2-18.4 7.1-24.7 5.4-11.7 17.3-22.7 29-11 1.5 1.5 2.9 3.3 4.2 5.1-2.5.6-4.6 1.8-6.2 3.6-2.1-3.3-5-7.1-8.8-7.2-10.6-.5-17.8 14.7-21.7 35.6 7.1 3 14.6 6.6 22.1 10.7 6.4-3.5 12.7-6.5 18.7-9.2-.6-3.3-1.3-6.6-2.2-9.9h.6c2.4 0 4.6-.7 6.5-1.9.9 3.3 1.6 6.2 2.2 8.9 9.5-3.8 18.1-6.3 25.1-7.2 12.8-1.5 28.5 2.7 24.7 18.8-1.1 4.4-3 8.6-5.5 12.5-1.5-2-3.5-3.6-5.9-4.4.7-1.1 1.4-2.3 2-3.4 1.9-3.6 4.6-9.1 2.4-13.1-5.3-9.3-22-7.3-42 .5 1.7 8.8 2.9 17.8 3.5 26.8 5 3.5 9.9 7.2 14.4 10.9 1.8-1.6 3.6-3.2 5.3-4.8 1.2 2.2 3.1 4 5.3 5.1-1.5 1.6-3.1 3.1-4.7 4.6 11.6 10.2 20.4 20.6 24.1 29.9 2.4 6.2 2.7 13.7-2.8 18.4zm-60.5-48.2c0 6.5-5.3 11.8-11.9 11.8-6.5 0-11.9-5.3-11.9-11.8 0-6.6 5.4-11.9 11.9-11.9 6.6 0 11.9 5.3 11.9 11.9z" class="g3_1" id="path11" fill="#595959"/><path d="M104.1 21.795c0 4.4-3.6 8-8 8-4.5 0-8.1-3.6-8.1-8s3.6-8 8.1-8c4.4 0 8 3.6 8 8z" class="g5_1" id="path13" fill="#2be6f0"/><path d="M16.1 56.895c0 4.4-3.6 8-8.1 8-4.4 0-8-3.6-8-8 0-4.5 3.6-8.1 8-8.1 4.5 0 8.1 3.6 8.1 8.1z" class="g2_1" id="path15" fill="#ffd60f"/><path d="M147.4 71.695c0 4.4-3.6 8-8.1 8-4.4 0-8-3.6-8-8 0-4.5 3.6-8.1 8-8.1 4.5 0 8.1 3.6 8.1 8.1z" class="g4_1" id="path17" fill="#87be2e"/></svg>