<svg xmlns="http://www.w3.org/2000/svg" width="78.624" height="187.949" viewBox="0 0 78.623741 187.94939" id="svg2" display="block"><defs id="defs4"><clipPath id="c0_1"><path d="M.1 1356.6V0h1161v1356.6z" id="path7"/></clipPath><style id="style9"><![CDATA[

.g1_1{
fill: #FFFFFF;
}
.g2_1{
fill: #FFD60F;
}
.g3_1{
fill: #595959;
}
.g4_1{
fill: #87BE2E;
}
.g5_1{
fill: #2BE6F0;
}
.g6_1{
fill: #84BC28;
}
.g7_1{
fill: #545454;
}
.g8_1{
fill: #2CEDF7;
}


]]></style></defs><path d="M21.112 170.812c0 22.8 36.4 22.9 36.4 0 16.7-9.3 15.3-11.9 15.3-31.2h-67c0 19.3-1.4 21.9 15.3 31.2zm-15.3-47.8h67v11.2h-67z" class="g3_1" id="path11" fill="#595959"/><path d="M26.812 20.612l38.3 11.2c5.6 1.6 11.4-1.6 13.1-7.2 1.6-5.6-1.6-11.4-7.2-13l-38.4-11.2c-5.5-1.6-11.4 1.6-13 7.2-1.6 5.6 1.6 11.4 7.2 13zm44.2 20.6l-57.5-16.7c-5.6-1.7-11.4 1.6-13.1 7.1-1.6 5.6 1.6 11.4 7.2 13.1l57.5 16.7c5.6 1.6 11.4-1.6 13.1-7.2 1.6-5.6-1.6-11.4-7.2-13zm0 29.6l-57.5-16.7c-5.6-1.7-11.4 1.5-13.1 7.1-1.6 5.6 1.6 11.4 7.2 13.1l47.1 13.6c-4.1 6.9-7 14.9-8.1 21.4-.7 4.3 2.2 8.4 6.5 9.1.4.1.9.1 1.3.1 3.8 0 7.1-2.7 7.8-6.6 3.2-19.5 14.2-22 16-28.1 1.6-5.6-1.6-11.4-7.2-13zm-40.2 38.5c.8 4.3-2.1 8.4-6.4 9.1-.5.1-.9.1-1.4.1-3.7 0-7.1-2.7-7.7-6.6-.9-5.2-3.3-11.4-6.4-16.3-2.3-3.7-1.2-8.6 2.5-10.9 3.7-2.3 8.6-1.2 10.9 2.5 4.1 6.6 7.3 14.9 8.5 22.1z" class="g4_1" id="path13" fill="#87be2e"/></svg>