<svg xmlns="http://www.w3.org/2000/svg" width="141.999" height="208.426" viewBox="0 0 141.99915 208.42606" id="svg2" display="block"><defs id="defs4"><clipPath id="c0_1"><path d="M.1 1356.6V0h1161v1356.6z" id="path7"/></clipPath><style id="style9"><![CDATA[

.g1_1{
fill: #FFFFFF;
}
.g2_1{
fill: #FFD60F;
}
.g3_1{
fill: #595959;
}
.g4_1{
fill: #87BE2E;
}
.g5_1{
fill: #2BE6F0;
}
.g6_1{
fill: #84BC28;
}
.g7_1{
fill: #545454;
}
.g8_1{
fill: #2CEDF7;
}


]]></style></defs><path d="M111.947 154.355l-15.6 8.2 2.5 4.8-15.7-8.5 2.1-17.7 2.5 4.9c13.3-6.6 22.3-11.3 23.9-17.5 2.1 23.4 3.2 24.4.3 25.8zm-29.6 15.4l-16.7 8.7c-2.9 1.5-3 .1-20.9-15.2 6.1 2.4 15.4-2.6 29-10l8.6 16.5zm-40.6-12.7c-.8-2.7.3-12.3.7-14.9l-5.5.3 14.2-10.7 15.4 9.1-5.6.3-1.6 17.5c-4.7 2.4-15.3 6.5-17.6-1.6zm.1-48.8c4-7.3 13.4-1 17.5 2.4l-2.4 17.9-18.3-3c0-1.1 1.6-14.5 3.2-17.3zm-5.3-42.5c4.7-2.4 10.4-.6 12.9 4.1 2.4 4.7.6 10.4-4.1 12.8-4.7 2.4-10.4.6-12.8-4-2.5-4.7-.6-10.5 4-12.9zm33.3 26.9l13.8 11.7 3.9-4.2-2.8 17.6-17.3 4.1 3.5-3.9c-10.9-9.5-18.6-15.9-24.8-15 20.8-11 21.2-12.3 23.7-10.3zm38.4 29.9c5.2 6.5-4.1 12.8-8.9 15.3l-17.5-11.3 14-12.6c1 .5 10.5 6.1 12.4 8.6zm-15.2-53.2l-40.9-15.4c-4.3-1.7-9.2-1.4-13.3.8l-13.3 6.9c-4.2 2.1-7.3 6-8.4 10.6l-10.2 41.8c-.9 3.9-.5 8 1.4 11.5l38.4 74c4.2 8.1 14.1 11.2 22.1 7l64.3-33.3c8-4.2 11.2-14.1 7-22.2l-38.4-73.9c-1.8-3.6-5-6.3-8.7-7.8z" class="g4_1" id="path11" fill="#87be2e"/><path d="M37.447 67.455c-3.8 1.9-5.3 6.6-3.3 10.3 1.9 3.8 6.6 5.2 10.3 3.3 3.8-2 5.3-6.6 3.3-10.4-1.9-3.7-6.6-5.2-10.3-3.2zm8.7 16.9c-5.5 2.8-12.4.7-15.3-4.9-2.9-5.6-.7-12.4 4.9-15.3 5.5-2.9 12.4-.7 15.3 4.8 2.9 5.6.7 12.5-4.9 15.4z" class="g3_1" id="path13" fill="#595959"/><path d="M38.647 73.855h-.3c-20.6-3-41.7-27.4-37.9-54.4 1.3-9.5 6.7-16.5 14.4-18.7 8.3-2.4 17.4 1 24.3 9.1 6.3 7.4 9.6 17.9 11.1 35.4.1 1-.7 1.9-1.7 2-1 .1-1.9-.6-2-1.7-1.4-16.4-4.6-26.7-10.2-33.3-6-7-13.6-10-20.4-8-6.3 1.8-10.7 7.7-11.9 15.7-3.5 24.9 15.9 47.5 34.8 50.2 1.1.2 1.8 1.1 1.6 2.1-.1.9-.9 1.6-1.8 1.6z" class="g3_1" id="path15" fill="#595959"/></svg>