<svg xmlns="http://www.w3.org/2000/svg" width="150.4" height="159" viewBox="0 0 150.39999 159" id="svg2" display="block"><defs id="defs4"><clipPath id="c0_1"><path d="M.1 1356.6V0h1161v1356.6z" id="path7"/></clipPath><style id="style9"><![CDATA[

.g1_1{
fill: #FFFFFF;
}
.g2_1{
fill: #FFD60F;
}
.g3_1{
fill: #595959;
}
.g4_1{
fill: #87BE2E;
}
.g5_1{
fill: #2BE6F0;
}
.g6_1{
fill: #84BC28;
}
.g7_1{
fill: #545454;
}
.g8_1{
fill: #2CEDF7;
}


]]></style></defs><path d="M99.6 153.7l4-1.7c2.9-1.2 4.3-4.5 3-7.4l-2.1-5.2c-1.2-2.9-4.6-4.3-7.4-3.1L93 138c-2.9 1.2-4.2 4.6-3 7.4l2.2 5.3c1.2 2.8 4.5 4.2 7.4 3zM92.2 8.4L90 13.6c-1.2 2.9.1 6.2 3 7.4l4.1 1.7c2.8 1.2 6.2-.2 7.4-3l2.1-5.3c1.3-2.8-.1-6.2-3-7.4l-4-1.7c-2.9-1.2-6.2.2-7.4 3.1zM38.7 152.2l4.1 1.7c2.9 1.2 6.2-.2 7.4-3.1l2.1-5.2c1.2-2.9-.2-6.2-3.1-7.4l-4.1-1.6c-2.8-1.2-6.2.2-7.3 3l-2.2 5.3c-1.2 2.9.2 6.2 3.1 7.3zM137 98.1l5.2 2.1c2.9 1.2 4.3 4.5 3.1 7.4l-1.7 4.1c-1.2 2.9-4.5 4.3-7.4 3.1l-5.2-2.2c-2.9-1.2-4.3-4.5-3.1-7.4l1.7-4c1.2-2.9 4.5-4.3 7.4-3.1zm-7.4-40.3l-1.7-4c-1.2-2.9.2-6.2 3.1-7.4l5.2-2.1c2.9-1.2 6.2.2 7.4 3.1l1.7 4c1.2 2.9-.2 6.2-3.1 7.4l-5.2 2.1c-2.9 1.2-6.2-.2-7.4-3.1zm-13 64.4l-3.1 3.1c-2.2 2.2-2.2 5.8 0 8l4 4c2.2 2.2 5.8 2.2 8 0l3.1-3.1c2.3-2.2 2.3-5.8 0-8l-4-4c-2.2-2.2-5.7-2.2-8 0zm8-85.4l4-3.9c2.3-2.3 2.3-5.8 0-8l-3.1-3.1c-2.2-2.3-5.8-2.3-8 0l-4 3.9c-2.2 2.3-2.2 5.8 0 8l3.1 3.1c2.3 2.3 5.8 2.3 8 0zm20.1 34.9h-5.6c-3.2 0-5.7 2.5-5.7 5.6v4.4c0 3.1 2.5 5.7 5.7 5.7h5.6c3.1 0 5.7-2.6 5.7-5.7v-4.4c0-3.1-2.6-5.6-5.7-5.6zm-66 76v5.7c0 3.1-2.5 5.6-5.6 5.6h-4.4c-3.1 0-5.7-2.5-5.7-5.6v-5.7c0-3.1 2.6-5.7 5.7-5.7h4.4c3.1 0 5.6 2.6 5.6 5.7zM73.1 17h-4.4c-3.1 0-5.7-2.6-5.7-5.7V5.7C63 2.6 65.6 0 68.7 0h4.4c3.1 0 5.6 2.6 5.6 5.7v5.6c0 3.1-2.5 5.7-5.6 5.7z" class="g2_1" id="path11" fill="#ffd60f"/><path d="M70.9 25.4c-8.4 0-16.4 1.9-23.5 5.3L44.6 50l29.2-.4-40.7 68.6c9.7 9.5 23.1 15.4 37.8 15.4 29.9 0 54.1-24.2 54.1-54.1 0-29.9-24.2-54.1-54.1-54.1z" class="g2_1" id="path13" fill="#ffd60f"/><path d="M62.5 55H37.8L45.7.5 0 76.9h24.8l-7.9 54.6L62.5 55z" class="g3_1" id="path15" fill="#595959"/></svg>