<svg xmlns="http://www.w3.org/2000/svg" width="183.2" height="172.3" viewBox="0 0 183.2 172.30028" id="svg2" display="block"><defs id="defs4"><clipPath id="c0_1"><path d="M.1 1356.6V0h1161v1356.6z" id="path7"/></clipPath><style id="style9"><![CDATA[

.g1_1{
fill: #FFFFFF;
}
.g2_1{
fill: #FFD60F;
}
.g3_1{
fill: #595959;
}
.g4_1{
fill: #87BE2E;
}
.g5_1{
fill: #2BE6F0;
}
.g6_1{
fill: #84BC28;
}
.g7_1{
fill: #545454;
}
.g8_1{
fill: #2CEDF7;
}


]]></style></defs><path d="M140.5 113.6V96.7c-13.6 7.7-25.8 9-36.1 7.2-1 18.1-15.9 32.4-34.2 32.4-18.8 0-34.2-15.3-34.2-34.2 0-17 12.4-31 28.6-33.7-2.9-10.1-3-22.3 3.1-36.5h-8.9L54 50.2c-3.1 1-6.1 2.2-8.9 3.7l-16.4-9.6-16.2 16.2 9.6 16.4c-1.5 2.9-2.8 5.8-3.7 8.9L0 90.6v23l18.4 4.8c.9 3.1 2.2 6 3.7 8.8l-9.6 16.4 16.2 16.3 16.4-9.6c2.8 1.4 5.8 2.7 8.9 3.7l4.8 18.3h22.9l4.8-18.3c3.1-1 6.1-2.3 8.9-3.7l16.4 9.6 16.2-16.3-9.6-16.4c1.5-2.8 2.8-5.7 3.7-8.8l18.4-4.8z" class="g3_1" id="path11" fill="#595959"/><path d="M183.2 1.1c-17.7 17.3-16.9 45.5-29.9 66.1-12.8 20.3-37.2 38.5-61.1 23.8 14.2-25.6 33-54 56.6-71.9-26 15.1-48.5 36.9-65.9 60.6-33-33.9 20.2-88.1 100.3-78.6z" class="g4_1" id="path13" fill="#87be2e"/></svg>