<svg xmlns="http://www.w3.org/2000/svg" width="166" height="166" viewBox="0 0 166 166" id="svg2" display="block"><defs id="defs4"><clipPath id="c0_1"><path d="M.1 1356.6V0h1161v1356.6z" id="path7"/></clipPath><style id="style9"><![CDATA[

.g1_1{
fill: #FFFFFF;
}
.g2_1{
fill: #FFD60F;
}
.g3_1{
fill: #595959;
}
.g4_1{
fill: #87BE2E;
}
.g5_1{
fill: #2BE6F0;
}
.g6_1{
fill: #84BC28;
}
.g7_1{
fill: #545454;
}
.g8_1{
fill: #2CEDF7;
}


]]></style></defs><path d="M96 105c-5.6-.1-9.4-5.5-8.3-14.3C88.8 82.1 94.8 73 96 70c1.2 3 7.3 12.1 8.3 20.7 1.1 8.8-2.7 14.2-8.3 14.3zm16.8-12.9C109 67.7 87.2 42 83 33.5 78.9 42 57.1 67.7 53.3 92.1c-3.8 24.8 9.8 40 29.7 40.5 20-.5 33.6-15.7 29.8-40.5z" class="g5_1" id="path11" fill="#2be6f0"/><path d="M159.6 76.6c-3.5 0-6.4 2.9-6.4 6.4 0 38.7-31.5 70.2-70.2 70.2S12.8 121.7 12.8 83 44.3 12.8 83 12.8c16.1 0 31.4 5.4 43.8 15.3l-10.4 8.4 19.5 7.6 19.4 7.6-7-41.2-11.5 9.4C121.8 7 103 0 83 0 37.3 0 0 37.3 0 83c0 45.8 37.3 83 83 83 45.8 0 83-37.2 83-83 0-3.5-2.8-6.4-6.4-6.4z" class="g3_1" id="path13" fill="#595959"/></svg>