<svg xmlns="http://www.w3.org/2000/svg" width="140.705" height="194.2" viewBox="0 0 140.70497 194.2" id="svg2" display="block"><defs id="defs4"><style id="style9"><![CDATA[

.g1_1{
fill: #FFFFFF;
}
.g2_1{
fill: #FFD60F;
}
.g3_1{
fill: #595959;
}
.g4_1{
fill: #87BE2E;
}
.g5_1{
fill: #2BE6F0;
}
.g6_1{
fill: #84BC28;
}
.g7_1{
fill: #545454;
}
.g8_1{
fill: #2CEDF7;
}


]]></style></defs><path d="M90.1 3.7c6.4 0 11.6 5.2 11.6 11.6v65.2c0 6.4-5.2 11.6-11.6 11.6H52.6c-6.4 0-11.6-5.2-11.6-11.6V15.3c0-6.4 5.2-11.6 11.6-11.6h37.5zm15.4 11.6C105.5 6.9 98.6 0 90.1 0H52.6c-6.2 0-18.7 5.4-18.7 19.5v65.1c0 7.5 6 13.5 13.5 13.5h37.5c7.7 0 14.2-3.3 17.6-8.2 2.5-3.6 2.6-6.4 2.8-8.6.1-1.5.2-3.4.2-5.8.1-8.7 0-25.5 0-60.2z" class="g3_1" id="path11" fill="#595959"/><path d="M91.8 59.6c-1.4-1.3-5.1-3.6-7.4-12.4-1.6-6-1.9-13.6-2-18.8 0-3-2.5-5.5-5.5-5.5H61.3c-1.9 0-3.4 1.5-3.4 3.4v44.4c0 1.8 1.5 3.2 3.3 3.2h22c2.6-1.4 9.4-9.7 8.6-14.3z" class="g3_1" id="path13" fill="#595959"/><path d="M62 26.9h4.1c-.5 26.3 7.2 30.7 9.3 32.7.5 2.9-2 7.2-4.6 10.4H62V26.9z" class="g4_1" id="path15" fill="#87be2e"/><path d="M77.3 194.1c.2-15.5-9.2-21.4-12.3-41.3-3.6-23.2-1-34.4 1.6-37.6 5.7-7.1 13.4-.8 13.4-.8s.8-6.7 5.9-9.7c5.8-3.5 11.9.7 11.9.7s3.1-6.7 8.6-8.1c5.8-1.4 11.4 3.7 11.4 3.7s.1-8.7-.9-18.1c-.6-5.3-1.9-12.8-2.4-17-4.1-13.9-2.4-19.9 1.1-21.3 9.3-3.7 13.5 19.2 17.3 35.8 3.1 13.7 6.6 17.2 7.6 35.7 2.3 45.8-15.5 53-16.2 78.1l-47-.1z" class="g3_1" id="path17" fill="#595959"/><path d="M19 94V0h-8.3v94H0l14.9 25.7L29.7 94H19z" class="g4_1" id="path19" fill="#87be2e"/></svg>