<svg xmlns="http://www.w3.org/2000/svg" width="168.537" height="168.9" viewBox="0 0 168.53673 168.89999" id="svg2" display="block"><defs id="defs4"><style id="style9"><![CDATA[

.g1_1{
fill: #FFFFFF;
}
.g2_1{
fill: #FFD60F;
}
.g3_1{
fill: #595959;
}
.g4_1{
fill: #87BE2E;
}
.g5_1{
fill: #2BE6F0;
}
.g6_1{
fill: #84BC28;
}
.g7_1{
fill: #545454;
}
.g8_1{
fill: #2CEDF7;
}


]]></style></defs><path d="M160.625 50.2c-2.6 0-4.3-2.5-3.8-6.5.5-3.9 3.3-8.1 3.8-9.4.5 1.3 3.3 5.5 3.8 9.4.5 4-1.3 6.5-3.8 6.5zm7.6-5.8c-1.7-11.2-11.6-22.9-13.5-26.8-1.9 3.9-11.9 15.6-13.6 26.8-1.7 11.2 4.5 18.2 13.6 18.4 9.1-.2 15.3-7.2 13.5-18.4z" class="g6_1" id="path11" fill="#84bc28"/><path d="M108.725 106.7c-4.1 3.7-8.2 9.3-9.7 15.2-.8-1-1.7-2-2.6-2.8-6.6-6-15.6-9.1-25.2-9.8 4.6 6.6 2.6 15.6 5.5 23 2.9 7.3 9.6 14.6 18.1 11.3-2.9-9-7.2-19.3-13.7-26.4 9.9 8.6 16.7 18.4 17 23.4.7 10.9-8.8 19.7-19.7 19.7h-49.2c-10.9 0-19.7-8.8-19.7-19.7v-27.9l-8.6 7.4v20.5c0 15.6 12.7 28.3 28.3 28.3h49.2c15.6 0 28.3-12.7 28.3-28.3 0-10.7 16.8-29.8 24.8-36.8-9.6 10.6-16 25.9-20.5 39.4 12.8 4.9 22.8-6 27.1-16.9 4.3-11 1.4-24.4 8.3-34.3-14.4 1-27.9 5.7-37.7 14.7z" class="g6_1" id="path13" fill="#84bc28"/><path d="M56.825 83.4c-.8.3-1.5.8-2 1.5-.1-.1-.3-.1-.4-.1-1.7-.1-7.3-.4-9.7.2-5.2 1.3-6.7 7.7-7.8 14.1-.9 4.9-1.6 10.1-1.9 12.7l-.1 1.1c-.2 1.6.9 3.1 2.5 3.3.6.1 1.2 0 1.7-.3.9-.4 1.5-1.2 1.7-2.3l.1-1.1c.3-2.5.9-7.6 1.8-12.4 1-5.9 2.2-9 3.5-9.4.9-.2 4.2-.2 7.1 0l-1.4 16.1c-.2 1.5-.1 2.7 1.4 3.2l-3 7.7c-4.5 12.8-19.3 3.6-30.4-6.4 0 0 6.9-25.2 12.4-31.9 6.7-8.2 15.8-8.8 15.8-8.8l9.8 12.2-1.1.6zm45.2-74.6l-13.2 7.2-.3-.6c-.3-.8-1.3-1.1-2.1-.8l-2.4 1.1c-.2-.4-.4-.9-.5-1.1-1-2.6-10.9 3.5-16.8 7.1-5.2 3.3-13.2-3.6-18.3.4-8.2 6.5-27.4 27.8-31.5 36-1.3 2.7 1.2 7.2 1 10.2l-17.8 50.2c-.4 1 .2 2.1 1.2 2.5l7.4 2.7c1 .4 2.2-.2 2.5-1.2l.1-.1 31 9.8c5.3 1.6 10.9-1 13.1-6 5.5-12.6 14.6-34.8 16-42.1 1.3-7 10.1-16.5 12.9-22.9 3.4-7.5-2.5-16.8-3.5-20.8-.9-3.8 9.3-10.7 8.7-12.9-.1-.3-.3-.7-.5-1.1l2.3-1c.8-.4 1.2-1.4.8-2.2v-.1l12.5-6.8 50-8.6-1.4-7.7-51.2 8.8z" class="g7_1" id="path15" fill="#545454"/></svg>