<svg xmlns="http://www.w3.org/2000/svg" width="165.69" height="196.812" viewBox="0 0 165.69008 196.81203" id="svg2" display="block"><defs id="defs4"><style id="style9"><![CDATA[

.g1_1{
fill: #FFFFFF;
}
.g2_1{
fill: #FFD60F;
}
.g3_1{
fill: #595959;
}
.g4_1{
fill: #87BE2E;
}
.g5_1{
fill: #2BE6F0;
}
.g6_1{
fill: #84BC28;
}
.g7_1{
fill: #545454;
}
.g8_1{
fill: #2CEDF7;
}


]]></style></defs><path d="M99.76 92.012l-20.7-.3c-4.4-5.6-13.6-18.1-19.2-23.1-1.7-1.5-5.2-4.2-9.9-5.5-7-2.6-15.4.5-20.7 8.4-4.4 6.6-22.8 42.6-28.7 54.7-1.7 3.5.7 7.8 4.2 9.5 3.6 1.7 7.8.3 9.6-3.3l9.3-17.1-1 70.1c0 7.4 4.1 11.4 9.3 11.4 5.1 0 9.3-4 9.3-11.4v-40.3c.6.2 4.5.2 5.2 0v40.3c0 7.4 4.1 11.4 9.3 11.4 5.1 0 9.3-4 9.3-11.4l-.8-85.8 4.7 5.8c1.1 1.3 2.6 2 4.2 2.1.8.3 1.7.4 2.6.4l24.1-.6c4.5 0 8.1-3.6 8-8.1 0-4.5-3.7-7.3-8.1-7.2z" class="g3_1" id="path11" fill="#595959"/><path d="M64.16 32.812c1.6 11.1-6.1 21.4-17.3 23-11.1 1.6-21.4-6.1-23-17.2-1.6-11.1 6.1-21.4 17.2-23 11.1-1.7 21.4 6 23.1 17.2z" class="g3_1" id="path13" fill="#595959"/><path d="M134.26 196.812h-41.7l-11-70.6c-.3-1.7.9-3.3 2.6-3.6 1.8-.2 3.3 1 3.6 2.7l10.2 65.3h30.9l10.2-65.3c.2-1.7 1.8-2.9 3.5-2.7 1.7.3 2.9 1.9 2.7 3.6l-11 70.6z" class="g3_1" id="path15" fill="#595959"/><path d="M112.76 139.712c-.2-.6 1-1.9.7-2.4-.4-.5-2 .2-2.6-.2-.5-.3-.2-2.1-.9-2.3-.5-.2-1.4 1.4-2.1 1.4-.6 0-1.5-1.6-2.1-1.4-.6.2-.4 2-.9 2.3-.5.4-2.1-.3-2.5.2-.4.5.8 1.8.7 2.4-.2.6-2 .9-2 1.6 0 .6 1.8 1 2 1.6.1.6-1.1 1.9-.7 2.4.4.5 2-.2 2.5.1.5.4.3 2.2.9 2.4.6.2 1.5-1.4 2.1-1.4.7 0 1.6 1.6 2.1 1.4.7-.2.4-2 .9-2.4.6-.3 2.2.4 2.6-.1.3-.5-.9-1.8-.7-2.4.2-.6 2-1 2-1.6 0-.7-1.8-1-2-1.6zm8.2-21.5c0 .8-2.4 1.3-2.7 2.1-.3.8 1.4 2.7.9 3.3-.5.7-2.7-.3-3.4.2-.7.5-.4 3-1.3 3.2-.8.3-2-1.8-2.9-1.8-.8 0-2 2.1-2.8 1.8-.9-.2-.6-2.7-1.3-3.2-.7-.5-2.9.5-3.4-.2-.5-.6 1.1-2.5.9-3.3-.3-.8-2.7-1.3-2.7-2.1 0-.9 2.4-1.4 2.7-2.2.2-.8-1.4-2.7-.9-3.3.5-.7 2.7.3 3.4-.2.7-.5.4-3 1.3-3.2.8-.3 2 1.8 2.8 1.8.9 0 2.1-2.1 2.9-1.8.9.2.6 2.7 1.3 3.2.7.5 2.9-.5 3.4.2.5.6-1.2 2.5-.9 3.3.3.8 2.7 1.3 2.7 2.2z" class="g3_1" id="path17" fill="#595959"/><path d="M125.26 85.312l-36-40.8c-2-2.2-1.8-5.7.5-7.7 2.2-2 5.7-1.7 7.7.5l25.4 28.8 32.5-63.2c1.4-2.6 4.7-3.7 7.4-2.3 2.7 1.4 3.7 4.7 2.3 7.3l-39.8 77.4z" class="g4_1" id="path19" fill="#87be2e"/></svg>