<svg xmlns="http://www.w3.org/2000/svg" width="165" height="187.9" viewBox="0 0 165 187.89999" id="svg2" display="block"><defs id="defs4"><style id="style9"><![CDATA[

.g1_1{
fill: #FFFFFF;
}
.g2_1{
fill: #FFD60F;
}
.g3_1{
fill: #595959;
}
.g4_1{
fill: #87BE2E;
}
.g5_1{
fill: #2BE6F0;
}
.g6_1{
fill: #84BC28;
}
.g7_1{
fill: #545454;
}
.g8_1{
fill: #2CEDF7;
}


]]></style></defs><path d="M43.7 108.2v27.2c0 .6-.5 1.1-1.1 1.1-.6 0-1.1-.5-1.1-1.1v-27.2c0-.5.5-1 1.1-1 .6 0 1.1.5 1.1 1zm5.9 0v27.2c0 .6-.5 1.1-1.1 1.1-.6 0-1.1-.5-1.1-1.1v-27.2c0-.5.5-1 1.1-1 .6 0 1.1.5 1.1 1zm5.9 0v27.2c0 .6-.5 1.1-1.1 1.1-.6 0-1.1-.5-1.1-1.1v-27.2c0-.5.5-1 1.1-1 .6 0 1.1.5 1.1 1zM26.8 94.5v12.2H2.6c-1.4 0-2.6 1.1-2.6 2.6 0 1.4 1.2 2.6 2.6 2.6h24.2v19.9H2.6c-1.4 0-2.6 1.1-2.6 2.6 0 1.4 1.2 2.6 2.6 2.6h24.2v12.1h10v-3.6h15.6c7.9 0 14.5-4.9 17.2-11.8H76v-23.8h-6.4c-2.7-6.9-9.3-11.8-17.2-11.8H36.8v-3.6h-10z" class="g3_1" id="path11" fill="#595959"/><path d="M158.3 0c-48.1 23-55.3 67-34.8 77.9v95.6c0 4.5-3.7 8.1-8.1 8.1h-6c-4.4 0-8.1-3.6-8.1-8.1v-39.9c0-8-6.4-14.4-14.4-14.4H76v6.3h10.9c4.5 0 8.1 3.6 8.1 8.1v39.9c0 8 6.5 14.4 14.4 14.4h6c7.9 0 14.4-6.4 14.4-14.4 0 0-.9-70.8 0-94.4.8-19.3 6.4-39.2 15.5-56.6-6.9 18.5-10.3 38.8-9.1 58.3C154.9 80.5 165 64 165 48c0-16.3-10.6-31.9-6.7-48z" class="g4_1" id="path13" fill="#87be2e"/><path d="M69.5 65.7c7.9 5.6 9.4 16.6 15.7 23.7 6.3 7.1 16.8 12.6 25.1 5.4-7-9-16.1-18.8-26.3-24.3 10.9 4.2 21 11.3 29.2 19.3C123.9 74.7 99.9 57 69.5 65.7z" class="g4_1" id="path15" fill="#87be2e"/></svg>