<svg xmlns="http://www.w3.org/2000/svg" width="125.1" height="175.9" viewBox="0 0 125.1 175.89999" id="svg2" display="block"><defs id="defs4"><style id="style9"><![CDATA[

.g1_1{
fill: #FFFFFF;
}
.g2_1{
fill: #FFD60F;
}
.g3_1{
fill: #595959;
}
.g4_1{
fill: #87BE2E;
}
.g5_1{
fill: #2BE6F0;
}
.g6_1{
fill: #84BC28;
}
.g7_1{
fill: #545454;
}
.g8_1{
fill: #2CEDF7;
}


]]></style></defs><path d="M30.4 160.2c-3.2-.1-5.4-3.1-4.8-8.1.6-4.9 4.1-10.1 4.8-11.8.6 1.7 4.1 6.9 4.7 11.8.6 5-1.6 8-4.7 8.1zm9.5-7.3C37.8 139 25.3 124.3 23 119.5c-2.4 4.8-14.8 19.5-17 33.4-2.1 14.1 5.6 22.7 17 23 11.3-.3 19.1-8.9 16.9-23z" class="g5_1" id="path11" fill="#2be6f0"/><path d="M120.2 28.5c-3.7 0-6.8 2.1-8.4 5.2H95.7c-2.9-4.3-7.4-7.3-12.6-8.3V12.2c4.6.7 10.8 1.1 14.8 1.1 10 0 12.7-2.6 12.7-5.9 0-3.3-2.7-6-12.7-6-4 0-10.3 1.2-15 2.3-.5-2.1-2.5-3.7-4.8-3.7s-4.3 1.6-4.9 3.7c-4.6-1.1-10.9-2.3-14.9-2.3-10.1 0-12.8 2.7-12.8 6s2.7 5.9 12.8 5.9c4 0 10.1-.4 14.7-1.1v13.2c-5.2 1-9.7 4-12.6 8.3H47.3c-23.6 0-42.7 19.1-42.7 42.7v23.1H0v9.7h44.2v-9.7h-4.6V76.4c0-4.2 3.5-7.7 7.7-7.7h10.9c1.9 4.3 5.8 7.5 10.5 8.4-.3 1-.4 2.1.6 3.5 1 1.5 2.8 2.4 4.7 2.4h8.2c1.9 0 3.6-.9 4.7-2.4 1-1.4.9-2.5.6-3.5 4.7-.9 8.6-4.1 10.5-8.4h14.2c1.7 2.6 4.7 4.3 8 4.3h4.9V28.5h-4.9z" class="g3_1" id="path13" fill="#595959"/></svg>