<svg xmlns="http://www.w3.org/2000/svg" width="188.825" height="167.8" viewBox="0 0 188.825 167.8" id="svg2" display="block"><defs id="defs4"><style id="style9"><![CDATA[

.g1_1{
fill: #FFFFFF;
}
.g2_1{
fill: #FFD60F;
}
.g3_1{
fill: #595959;
}
.g4_1{
fill: #87BE2E;
}
.g5_1{
fill: #2BE6F0;
}
.g6_1{
fill: #84BC28;
}
.g7_1{
fill: #545454;
}
.g8_1{
fill: #2CEDF7;
}


]]></style></defs><path d="M94.375 6.9c-3.4 0-6.4 1.8-8.1 4.7l-78 135.2c-1.7 2.9-1.7 6.5 0 9.4 1.7 2.9 4.7 4.7 8.1 4.7h156.1c3.4 0 6.4-1.8 8.1-4.7 1.7-2.9 1.7-6.5 0-9.4l-78-135.2c-1.7-2.9-4.8-4.7-8.2-4.7zm78.1 160.9h-156.1c-5.9 0-11.2-3-14.2-8.1-2.9-5.1-2.9-11.3 0-16.4l78.1-135.1c2.9-5.2 8.2-8.2 14.1-8.2s11.2 3 14.2 8.2l78 135.1c3 5.1 3 11.3 0 16.4-2.9 5.1-8.2 8.1-14.1 8.1z" class="g2_1" id="path11" fill="#ffd60f"/><path d="M94.375 155.5h-72c-5.2 0-8.5-5.8-5.9-10.3l72-124.7c2.6-4.6 9.2-4.6 11.9 0l72 124.7c2.6 4.5-.7 10.3-6 10.3h-72z" class="g3_1" id="path13" fill="#595959"/><path d="M105.375 54c-.7-5.8-3.7-9.7-11-9.8-7.3.1-10.2 4-10.9 9.8-.7 5.5-.1 8.1 6.7 68.5 1.3-.5 2.7-.9 4.2-.9 1.6 0 3 .4 4.3.9 6.8-60.8 7.3-63.1 6.7-68.5zm-1.5 83.2c0 5.3-4.2 9.5-9.5 9.5-5.2 0-9.5-4.2-9.5-9.5 0-5.2 4.3-9.5 9.5-9.5 5.3 0 9.5 4.3 9.5 9.5z" class="g2_1" id="path15" fill="#ffd60f"/></svg>