<svg xmlns="http://www.w3.org/2000/svg" width="261.4" height="172.986" viewBox="0 0 261.39999 172.98643" id="svg2" display="block"><defs id="defs4"><style id="style9"><![CDATA[

.g1_1{
fill: #FFFFFF;
}
.g2_1{
fill: #FFD60F;
}
.g3_1{
fill: #595959;
}
.g4_1{
fill: #87BE2E;
}
.g5_1{
fill: #2BE6F0;
}
.g6_1{
fill: #84BC28;
}
.g7_1{
fill: #545454;
}
.g8_1{
fill: #2CEDF7;
}


]]></style></defs><path d="M49 85.086c-21.5 0-38.9 17.4-38.9 38.9s17.4 38.9 38.9 38.9 38.9-17.4 38.9-38.9-17.4-38.9-38.9-38.9zm0 87.9c-27 0-49-22-49-49s22-49 49-49 49 22 49 49-22 49-49 49z" class="g4_1" id="path11" fill="#87be2e"/><path d="M212.3 85.086c-21.4 0-38.9 17.4-38.9 38.9s17.5 38.9 38.9 38.9c21.5 0 39-17.4 39-38.9s-17.5-38.9-39-38.9zm0 87.9c-27 0-49-22-49-49s22-49 49-49c27.1 0 49.1 22 49.1 49s-22 49-49.1 49z" class="g4_1" id="path13" fill="#87be2e"/><path d="M125 123.586c-2-1-4.3-1.6-6.7-1.6-.3 0-.6 0-.8.1l-14.8-49 69-4.7-46.7 55.2zm-28.5-46.7l14.2 47.2c-2.7 1.6-4.8 3.9-6.1 6.8l-48.7-9.2 40.6-44.8zm119.3 45.4c-.1-.2-.2-.4-.4-.5l-12.6-8.2c-3.5-2.3-6.1-5.8-7.3-9.8l-27.1-87.2c-.8-2.4-2.7-4.2-5.2-4.8l-13.7-3.5c-.8-2.6-3.3-4.9-6.6-5.8l-7.8-2.1c-4.7-1.3-9.3.8-10.3 4.5-1 3.8 2 7.8 6.7 9.1l7.8 2.1c2.8.7 5.7.3 7.7-1.1l10.7 2.7c2.4.6 4.3 2.4 5.1 4.8l12 38.6-74.2 5-3.8-12.5c13-.6 23-4.2 23-8.5 0-4.7-23-3.6-36.8-10.6-13.1-6.7-16.8 5.9-16.8 10.6 0 4.4 10.1 8 23.2 8.5l4.7 15.4-46.6 51.5c-2.4 2.5-1 6.6 2.4 7.3l53.4 10c.4 7.9 7 14.2 15 14.2 1.6 0 3.1-.2 4.5-.7l3.4 5h-1.8c-1.1 0-1.9.9-1.9 2v3.4c0 1.1.9 2 2 2l17.7-.1c1.1 0 1.9-.9 1.9-2v-3.4c0-1.1-.9-1.9-2-1.9h-8.4l-5.4-8.1c3-2.7 5-6.7 5-11.2 0-3.3-1.1-6.3-2.9-8.8l47.7-56.5 10.6 34.2c1.7 5.6 5.4 10.4 10.2 13.6l11.5 7.5c.6.4 1.3.5 1.9.5 2.2 0 4.2-1.9 3.5-5.2z" class="g3_1" id="path15" fill="#595959"/></svg>