<svg xmlns="http://www.w3.org/2000/svg" width="184.9" height="195.6" viewBox="0 0 184.89999 195.60001" id="svg2" display="block"><defs id="defs4"><style id="style9"><![CDATA[

.g1_1{
fill: #FFFFFF;
}
.g2_1{
fill: #FFD60F;
}
.g3_1{
fill: #595959;
}
.g4_1{
fill: #87BE2E;
}
.g5_1{
fill: #2BE6F0;
}
.g6_1{
fill: #84BC28;
}
.g7_1{
fill: #545454;
}
.g8_1{
fill: #2CEDF7;
}


]]></style></defs><path d="M92.4 16.1C76.9 45.7 41.6 58.7 10.3 48.7c18.4 91.1 70.4 128.8 82.1 136.4 11.8-7.6 63.8-45.3 82.2-136.4-31.3 10-66.6-3-82.2-32.6zm0 179.5l-1.9-1.1c-.7-.3-17.4-9.5-36.9-32C22.9 126.9 7.3 83.6 0 35.2c9 4.2 16.5 7.7 31.7 7.7C72.6 42.9 88 9.1 92.4 0c4.5 9.1 19.9 42.9 60.8 42.9 15.2 0 22.7-3.5 31.7-7.7-7.3 48.4-22.9 91.7-53.6 127.3-19.5 22.5-36.2 31.7-36.9 32l-2 1.1z" class="g3_1" id="path11" fill="#595959"/><path d="M95.7 121.6v23.1c26.3-4.6 34.2-29.1 31.5-54.6l-31.5 31.5zm-6.5-45.3V50.8c-2.5 2-6.2 10.1-9.3 16.2l9.3 9.3zm0 45.3L57.7 90.1c-2.7 25.7 5.3 50 31.5 54.6v-23.1zm6.5-8.7l21.7-21.7c-1.2-7.2-3.7-14.3-6.8-20.7l-14.9 15v27.4zm-6.5-27.4l-14.9-15c-3.1 6.4-5.6 13.5-6.8 20.7l21.7 21.7V85.5zm6.5-34.7c2.5 2 6.2 10.1 9.3 16.2l-9.3 9.3V50.8z" class="g4_1" id="path13" fill="#87be2e"/></svg>