<svg xmlns="http://www.w3.org/2000/svg" width="176.5" height="209.2" viewBox="0 0 176.5 209.2" id="svg2" display="block"><defs id="defs4"><style id="style9"><![CDATA[

.g1_1{
fill: #FFFFFF;
}
.g2_1{
fill: #FFD60F;
}
.g3_1{
fill: #595959;
}
.g4_1{
fill: #87BE2E;
}
.g5_1{
fill: #2BE6F0;
}
.g6_1{
fill: #84BC28;
}
.g7_1{
fill: #545454;
}
.g8_1{
fill: #2CEDF7;
}


]]></style></defs><path d="M157 97.8c-.6-31-22.3-56.8-50.8-63.9-5.7-1.4-7.9 7.3-2.1 8.7 24.8 6.2 43.3 28.6 44 54.8l-6-.2 9.5 18 10.8-17.3-5.4-.1zm-20.7 36.6c-11.2 14.6-28.1 23-46.4 23-12.6 0-24.7-4.1-34.7-11.5l3.5-3.8-9.9-2.3-9.9-2.2 6 19.4 4.2-4.5c11.7 8.9 25.9 13.8 40.8 13.8 21.1 0 40.6-9.7 53.5-26.5 3.5-4.7-3.6-10.1-7.1-5.4zM33.8 114.7c1.5 5.7-7.1 8.1-8.6 2.4-1.7-5.9-2.5-11.9-2.5-18 0-25.4 14.1-48.3 36.7-59.8l-2.1-5.2 10.1 1.4 10 1.4-12.5 16-2.1-5.3C43.6 57.7 31.7 77.3 31.7 99.1c0 5.3.7 10.5 2.1 15.6z" class="g5_1" id="path11" fill="#2be6f0"/><path d="M112 94.5l-14.9 5.1c0-.2.1-.3.1-.5 0-3.6-2.7-6.6-6.2-7.2V0h-1.7L74.8 81.9l11.9 10.7c-2.4 1.2-4.1 3.7-4.1 6.5 0 .5.1.9.2 1.3L0 143l.8 1.5 79.4-24.6 4.3-16c.7.8 1.6 1.5 2.6 1.9l-1.9 46c1.6.1 3.1.2 4.7.2s3.2-.1 4.7-.2l-1.9-46c1.1-.4 2-1.1 2.7-2l80.2 44.7.9-1.4L112 94.5z" class="g3_1" id="path13" fill="#595959"/><path d="M95.4 171.4c-1.8.2-3.6.2-5.5.2-1.8 0-3.7 0-5.5-.2l-1.2 28.4h-4.5v9.4h22.4v-9.4h-4.5l-1.2-28.4z" class="g3_1" id="path15" fill="#595959"/></svg>