<svg xmlns="http://www.w3.org/2000/svg" width="158.107" height="185.8" viewBox="0 0 158.10718 185.8" id="svg2" display="block"><defs id="defs4"><style id="style9"><![CDATA[

.g1_1{
fill: #FFFFFF;
}
.g2_1{
fill: #FFD60F;
}
.g3_1{
fill: #595959;
}
.g4_1{
fill: #87BE2E;
}
.g5_1{
fill: #2BE6F0;
}
.g6_1{
fill: #84BC28;
}
.g7_1{
fill: #545454;
}
.g8_1{
fill: #2CEDF7;
}


]]></style></defs><path d="M96.3 64.4V97c0 7.2-6 17-15.9 32.4-7.6 11.7-16.2 25-18.8 34.7-1 4-.8 7.3.6 9.2 1.9 2.4 5.8 2.9 8.8 2.9h67.4c3 0 7-.5 8.8-2.9 1.5-1.9 1.7-5.2.6-9.2-2.6-9.7-11.2-23-18.7-34.7-9.9-15.4-16-25.2-16-32.4V64.4H96.3zm42.1 121.4H71c-9.3 0-14.1-3.6-16.4-6.7-3.4-4.4-4.2-10.4-2.3-17.5 3-11.1 11.6-24.5 20-37.5C79 113.6 86.7 101.7 86.7 97V54.8h36V97c0 4.7 7.7 16.6 14.5 27.1 8.3 13 16.9 26.4 19.9 37.5 1.9 7.1 1.1 13.1-2.3 17.5-2.3 3.1-7 6.7-16.4 6.7z" class="g3_1" id="path11" fill="#595959"/><path d="M134.2 0c-5.5 8.5-2.7 19.6-6.1 29-3.3 9.3-11.4 18.7-22.2 14.9 3.3-11.4 8.4-24.5 16.2-33.7-9.1 8.4-16.1 19.1-21 30C85 29.7 101.4 3.3 134.2 0z" class="g4_1" id="path13" fill="#87be2e"/><path d="M81.6 137.7c-11.3 16.9-22.7 33.5-4.5 33.5h55.2c18.2 0 6.8-16.6-4.4-33.5H81.6z" class="g4_1" id="path15" fill="#87be2e"/><path d="M73.2 67H0l16 27.8v45.9c0 21.9 13.2 24.7 24.6 24.7 2.9 0 5.1-2.3 5.1-5.1 0-2.9-2.2-5.1-5.1-5.1-9.8 0-14.4-1.5-14.4-14.5v-13.1h17.3v-4.9H26.2v-6.9h17.3v-4.9H26.2v-7h17.3v-4.8H26.2v-7h17.3v-4.8H26.2V77.2h47c2.8 0 5.1-2.2 5.1-5.1 0-2.8-2.3-5.1-5.1-5.1z" class="g3_1" id="path17" fill="#595959"/></svg>